<svg width="262" height="250" viewBox="0 0 262 250" fill="none" xmlns="http://www.w3.org/2000/svg">
<g clip-path="url(#clip0_3208_172)">
<path d="M212.299 114.66C212.575 135.654 206.62 156.259 195.186 173.868C183.753 191.477 167.354 205.3 148.064 213.589C128.774 221.878 107.459 224.261 86.8144 220.436C66.1702 216.611 47.1239 206.75 32.084 192.1C17.0442 177.45 6.68643 158.669 2.3205 138.133C-2.04542 117.596 -0.223378 96.2257 7.55622 76.7246C15.3358 57.2235 28.7235 40.4673 46.0264 28.575C63.3292 16.6827 83.77 10.1884 104.764 9.91345C132.914 9.54397 160.058 20.3722 180.225 40.016C200.392 59.6598 211.929 86.5102 212.299 114.66Z" fill="#979B8A"/>
<path d="M40.847 249.418C31.8402 249.413 23.1974 245.863 16.7885 239.535C10.3795 233.206 6.71973 224.609 6.60093 215.603L6.40093 200.418C6.29143 191.334 9.79041 182.577 16.13 176.07C22.4696 169.562 31.1319 165.836 40.216 165.708L173.39 163.951C182.444 163.995 191.145 167.469 197.739 173.673C200.972 176.806 203.552 180.548 205.331 184.683C207.109 188.819 208.051 193.266 208.101 197.767L208.295 212.952C208.357 217.452 207.531 221.921 205.864 226.101C204.198 230.282 201.723 234.093 198.583 237.317C195.442 240.541 191.697 243.114 187.561 244.889C183.425 246.664 178.98 247.606 174.48 247.662L41.311 249.41L40.847 249.418ZM173.847 180.842H173.619L40.425 182.599C35.8198 182.664 31.4287 184.554 28.2159 187.854C25.003 191.154 23.231 195.594 23.289 200.199L23.489 215.375C23.5116 217.658 23.9873 219.914 24.8885 222.012C25.7897 224.11 27.0985 226.008 28.739 227.596C32.0468 230.798 36.4829 232.567 41.086 232.52L174.268 230.772C176.548 230.743 178.8 230.264 180.895 229.364C182.99 228.464 184.887 227.16 186.478 225.527C188.069 223.893 189.323 221.963 190.167 219.845C191.012 217.727 191.431 215.463 191.401 213.183L191.207 197.983C191.146 193.417 189.29 189.058 186.039 185.85C182.789 182.642 178.406 180.844 173.839 180.843" fill="#3B564D"/>
<path d="M98.4572 142.923C89.4522 142.911 80.8132 139.358 74.4047 133.031C67.9962 126.705 64.3321 118.113 64.2032 109.108L63.9672 90.9935C63.8601 81.9115 67.3587 73.1577 73.6958 66.6512C80.033 60.1448 88.6916 56.4167 97.7732 56.2845L112.958 56.0845H113.414C122.419 56.0969 131.059 59.6489 137.469 65.9743C143.878 72.2996 147.545 80.8912 147.676 89.8955L147.912 108.002C148.02 117.085 144.521 125.84 138.184 132.348C131.848 138.856 123.189 142.586 114.106 142.72L98.9062 142.914L98.4582 142.922M113.416 72.9755H113.19L98.0052 73.1755C93.4001 73.2429 89.0096 75.1334 85.796 78.4325C82.5824 81.7316 80.8078 86.1702 80.8612 90.7755L81.0902 108.884C81.154 113.45 83.0111 117.808 86.2605 121.017C89.5099 124.225 93.8908 126.027 98.4572 126.032L98.6932 126.024L113.89 125.83C118.496 125.768 122.889 123.879 126.102 120.578C129.315 117.278 131.087 112.836 131.026 108.23L130.79 90.1145C130.723 85.5485 128.863 81.1921 125.612 77.985C122.362 74.7779 117.981 72.9773 113.414 72.9715" fill="#3B564D"/>
<path d="M201.324 108.564L156.986 53.4903C155.621 51.7408 155 49.5245 155.256 47.3205C155.512 45.1164 156.625 43.1017 158.355 41.7119C160.084 40.322 162.291 39.6685 164.499 39.8928C166.706 40.1171 168.737 41.201 170.152 42.9103L199.474 79.3353L245.831 4.02031C246.411 3.07598 247.172 2.25524 248.07 1.60496C248.968 0.954686 249.985 0.487605 251.063 0.230387C252.141 -0.0268316 253.26 -0.0691494 254.354 0.105849C255.449 0.280848 256.498 0.669737 257.443 1.25031C258.387 1.83088 259.208 2.59177 259.858 3.48954C260.508 4.3873 260.975 5.40435 261.233 6.48263C261.49 7.5609 261.532 8.67928 261.357 9.77391C261.182 10.8685 260.793 11.918 260.213 12.8623L201.324 108.564Z" fill="#3B564D"/>
</g>
<defs>
<clipPath id="clip0_3208_172">
<rect width="262" height="250" fill="white"/>
</clipPath>
</defs>
</svg>
