<svg width="190" height="160" viewBox="0 0 190 160" fill="none" xmlns="http://www.w3.org/2000/svg">
<g clip-path="url(#clip0_3201_161)">
<path d="M189.336 65.8618C189.509 79.0609 185.765 92.0151 178.577 103.086C171.389 114.158 161.078 122.848 148.951 128.06C136.823 133.272 123.422 134.77 110.442 132.365C97.4631 129.961 85.4883 123.761 76.0323 114.551C66.5763 105.34 60.064 93.5329 57.3187 80.6213C54.5734 67.7097 55.7185 54.274 60.6093 42.0132C65.5 29.7524 73.9167 19.2173 84.795 11.74C95.6732 4.26274 108.524 0.179201 121.724 0.00578614C130.487 -0.109617 139.188 1.50227 147.329 4.7494C155.469 7.99654 162.891 12.8153 169.169 18.9307C175.447 25.046 180.46 32.338 183.92 40.3905C187.38 48.443 189.22 57.0981 189.336 65.8618Z" fill="#979B8A"/>
<path d="M90.0686 57.6062C84.4056 57.6033 78.9714 55.3707 74.9419 51.3916C70.9125 47.4125 68.6118 42.0068 68.5376 36.3442L68.3886 24.9602C68.3131 19.2486 70.5094 13.7409 74.4945 9.64853C78.4796 5.55617 83.927 3.21437 89.6386 3.13823L99.1966 3.01123H99.4886C105.149 3.02114 110.579 5.2557 114.607 9.23291C118.635 13.2101 120.938 18.6112 121.02 24.2712L121.169 35.6552C121.206 38.4838 120.686 41.2921 119.638 43.9198C118.59 46.5474 117.035 48.9428 115.061 50.9693C113.088 52.9958 110.734 54.6137 108.135 55.7305C105.536 56.8473 102.742 57.4412 99.9136 57.4782L90.3556 57.6052L90.0686 57.6062ZM99.4826 13.6302H99.3396L89.7816 13.7572C86.8865 13.7965 84.1254 14.9836 82.1052 17.0577C80.0849 19.1318 78.9708 21.9231 79.0076 24.8182L79.1566 36.2072C79.1714 37.6424 79.4707 39.0605 80.0372 40.3792C80.6036 41.698 81.426 42.8914 82.4566 43.8902C83.4737 44.9036 84.6854 45.7007 86.0187 46.2334C87.3519 46.7662 88.7792 47.0236 90.2146 46.9902L99.7726 46.8632C101.206 46.8448 102.622 46.5441 103.94 45.9783C105.257 45.4124 106.45 44.5925 107.451 43.5654C108.451 42.5383 109.239 41.3241 109.771 39.9922C110.302 38.6604 110.565 37.2369 110.546 35.8032L110.397 24.4142C110.357 21.544 109.19 18.8046 107.148 16.7871C105.106 14.7696 102.353 13.6357 99.4826 13.6302Z" fill="#3B564D"/>
<path d="M100.083 117.786H21.542C15.8299 117.779 10.3537 115.507 6.31505 111.467C2.27643 107.428 0.00529327 101.951 0 96.2389V86.6929C0.00635241 80.9815 2.27799 75.5059 6.31652 71.4674C10.3551 67.4289 15.8307 65.1572 21.542 65.1509H100.084C105.796 65.1575 111.271 67.4291 115.311 71.4674C119.35 75.5058 121.622 80.9812 121.63 86.6929V96.2399C121.623 101.952 119.351 107.429 115.312 111.469C111.272 115.508 105.796 117.779 100.083 117.786ZM21.542 75.7699C18.6461 75.7733 15.8698 76.9252 13.8221 78.973C11.7744 81.0207 10.6224 83.797 10.619 86.6929V96.2399C10.6216 99.1364 11.7732 101.914 13.821 103.962C15.8687 106.011 18.6455 107.163 21.542 107.167H100.084C102.981 107.164 105.759 106.012 107.807 103.963C109.856 101.915 111.008 99.137 111.011 96.2399V86.6929C111.007 83.7965 109.854 81.02 107.806 78.9725C105.757 76.9249 102.98 75.7735 100.084 75.7709L21.542 75.7699Z" fill="#3B564D"/>
<path d="M155.587 159.796H77.0459C71.3347 159.79 65.8592 157.518 61.8207 153.48C57.7822 149.442 55.5105 143.966 55.5039 138.255V128.703C55.5102 122.992 57.7818 117.516 61.8204 113.478C65.8589 109.439 71.3345 107.167 77.0459 107.161H155.588C161.3 107.167 166.776 109.439 170.815 113.477C174.855 117.516 177.127 122.991 177.135 128.703V138.255C177.127 143.967 174.855 149.443 170.815 153.481C166.776 157.519 161.3 159.791 155.588 159.797M77.0459 117.779C74.1498 117.783 71.3733 118.935 69.3256 120.983C67.2778 123.03 66.126 125.807 66.1229 128.703V138.255C66.126 141.151 67.2778 143.928 69.3256 145.976C71.3733 148.024 74.1498 149.176 77.0459 149.179H155.588C158.484 149.176 161.261 148.025 163.31 145.978C165.358 143.93 166.511 141.153 166.515 138.257V128.703C166.512 125.806 165.359 123.029 163.31 120.981C161.261 118.933 158.484 117.782 155.587 117.779H77.0459Z" fill="#3B564D"/>
</g>
<defs>
<clipPath id="clip0_3201_161">
<rect width="190" height="160" fill="white"/>
</clipPath>
</defs>
</svg>
