<svg width="241" height="203" viewBox="0 0 241 203" fill="none" xmlns="http://www.w3.org/2000/svg">
<g clip-path="url(#clip0_3201_171)">
<path d="M240.311 83.5953C240.532 100.348 235.779 116.79 226.655 130.842C217.531 144.894 204.445 155.925 189.051 162.539C173.658 169.154 156.649 171.055 140.175 168.002C123.701 164.95 108.503 157.081 96.501 145.39C84.4994 133.7 76.234 118.713 72.7501 102.325C69.2662 85.9367 70.7203 68.8835 76.9283 53.3218C83.1364 37.7602 93.8197 24.3889 107.627 14.899C121.435 5.40905 137.746 0.226708 154.499 0.00729965C176.963 -0.287434 198.624 8.35351 214.717 24.0293C230.809 39.705 240.016 61.1315 240.311 83.5953Z" fill="#979B8A"/>
<path d="M114.321 73.1163C107.134 73.1127 100.236 70.2793 95.1219 65.2292C90.0073 60.179 87.0868 53.3183 86.9922 46.1313L86.8032 31.6823C86.7071 24.4328 89.4946 17.442 94.5526 12.2477C99.6106 7.05338 106.525 4.08096 113.774 3.98427L125.905 3.82227H126.276C133.461 3.83516 140.352 6.67148 145.464 11.7195C150.576 16.7675 153.5 23.6226 153.603 30.8063L153.792 45.2553C153.84 48.8455 153.18 52.41 151.85 55.7452C150.52 59.0804 148.547 62.121 146.041 64.6932C143.536 67.2655 140.549 69.3191 137.25 70.7367C133.951 72.1543 130.405 72.9082 126.815 72.9553L114.684 73.1173L114.321 73.1163ZM126.269 17.3033H126.087L113.956 17.4653C110.282 17.5153 106.779 19.0216 104.215 21.6532C101.651 24.2848 100.237 27.8265 100.282 31.5003L100.471 45.9553C100.49 47.7772 100.871 49.5772 101.59 51.2512C102.31 52.9251 103.354 54.4397 104.663 55.7073C105.955 56.9924 107.493 58.0029 109.185 58.6782C110.877 59.3534 112.688 59.6793 114.509 59.6363L126.64 59.4743C128.46 59.4508 130.257 59.069 131.929 58.3508C133.601 57.6326 135.115 56.592 136.385 55.2885C137.655 53.9849 138.655 52.444 139.329 50.7537C140.003 49.0634 140.338 47.2568 140.313 45.4373L140.121 30.9813C140.068 27.3398 138.587 23.8648 135.996 21.3058C133.404 18.7467 129.911 17.3085 126.269 17.3013" fill="white"/>
<path d="M127.029 149.499H27.341C20.0912 149.491 13.1409 146.606 8.01517 141.479C2.88943 136.352 0.00688066 129.401 0 122.151V110.033C0.00846903 102.785 2.89175 95.8353 8.01735 90.7097C13.1429 85.5841 20.0923 82.7009 27.341 82.6924H127.029C134.278 82.7003 141.229 85.5832 146.356 90.7087C151.483 95.8342 154.367 102.784 154.377 110.033V122.151C154.369 129.402 151.485 136.353 146.358 141.48C141.231 146.607 134.28 149.491 127.029 149.499ZM27.341 96.1714C23.666 96.1761 20.1429 97.6381 17.5443 100.237C14.9457 102.835 13.4838 106.358 13.479 110.033V122.151C13.4819 125.828 14.943 129.353 17.5418 131.953C20.1405 134.554 23.6646 136.017 27.341 136.022H127.029C130.707 136.019 134.233 134.557 136.834 131.956C139.434 129.356 140.897 125.829 140.9 122.151V110.033C140.895 106.357 139.432 102.833 136.832 100.234C134.231 97.6349 130.706 96.1736 127.03 96.1704L27.341 96.1714Z" fill="white"/>
<path d="M197.474 202.821H97.7863C90.5374 202.813 83.5879 199.929 78.4623 194.803C73.3367 189.678 70.4535 182.728 70.4453 175.479V163.355C70.4538 156.106 73.337 149.157 78.4626 144.032C83.5882 138.906 90.5376 136.023 97.7863 136.014H197.474C204.724 136.022 211.674 138.905 216.801 144.03C221.928 149.156 224.812 156.106 224.822 163.355V175.479C224.812 182.729 221.928 189.678 216.801 194.804C211.674 199.929 204.724 202.813 197.474 202.821ZM97.7863 149.493C94.1113 149.498 90.5882 150.96 87.9896 153.559C85.391 156.157 83.9291 159.68 83.9243 163.355V175.479C83.9288 179.154 85.3907 182.678 87.9893 185.276C90.5879 187.875 94.1111 189.337 97.7863 189.342H197.474C201.151 189.339 204.676 187.878 207.276 185.279C209.876 182.68 211.339 179.156 211.344 175.479V163.355C211.339 159.679 209.876 156.155 207.276 153.556C204.676 150.957 201.151 149.495 197.474 149.492L97.7863 149.493Z" fill="white"/>
</g>
<defs>
<clipPath id="clip0_3201_171">
<rect width="241" height="203" fill="white"/>
</clipPath>
</defs>
</svg>
