<svg width="195" height="165" viewBox="0 0 195 165" fill="none" xmlns="http://www.w3.org/2000/svg">
<g clip-path="url(#clip0_3201_166)">
<path d="M194.944 67.8139C195.123 81.4043 191.268 94.7426 183.866 106.142C176.464 117.541 165.848 126.49 153.361 131.856C140.873 137.222 127.075 138.764 113.711 136.288C100.347 133.812 88.0172 127.428 78.2811 117.944C68.5451 108.461 61.84 96.3028 59.0138 83.0082C56.1876 69.7137 57.3673 55.8797 62.4035 43.2556C67.4398 30.6315 76.1065 19.7844 87.3077 12.086C98.5089 4.38763 111.741 0.183715 125.332 0.00591401C143.555 -0.233024 161.126 6.77671 174.181 19.4931C187.236 32.2095 194.704 49.591 194.944 67.8139Z" fill="#3B564D"/>
<path d="M92.7341 59.3131C86.9036 59.3099 81.3088 57.0114 77.16 52.9148C73.0113 48.8183 70.6421 43.253 70.5651 37.4231L70.4121 25.7021C70.3736 22.7899 70.9091 19.8987 71.988 17.1935C73.067 14.4884 74.6682 12.0222 76.7002 9.93583C78.7322 7.84947 81.1553 6.1838 83.8311 5.0339C86.5069 3.88401 89.3829 3.27243 92.2951 3.23407L102.134 3.10107H102.434C108.262 3.11123 113.853 5.41199 118 9.50707C122.148 13.6021 124.519 19.1633 124.603 24.9911L124.756 36.7121C124.795 39.6243 124.26 42.5156 123.181 45.221C122.102 47.9263 120.501 50.3927 118.469 52.4793C116.437 54.5658 114.014 56.2317 111.338 57.3818C108.662 58.5318 105.786 59.1436 102.874 59.1821L93.0331 59.3131H92.7341ZM102.434 14.0341H102.286L92.4451 14.1651C89.4639 14.2051 86.6205 15.4273 84.54 17.5629C82.4596 19.6985 81.3122 22.5728 81.3501 25.5541L81.5031 37.2811C81.5186 38.759 81.8271 40.2192 82.4107 41.5771C82.9943 42.9351 83.8414 44.1637 84.9031 45.1921C85.9506 46.2345 87.1982 47.0542 88.5708 47.6019C89.9434 48.1496 91.4127 48.414 92.8901 48.3791L102.731 48.2481C104.207 48.2292 105.665 47.9195 107.022 47.3369C108.379 46.7543 109.607 45.9101 110.637 44.8525C111.667 43.7949 112.479 42.5448 113.026 41.1734C113.573 39.802 113.844 38.3363 113.824 36.8601L113.671 25.1341C113.629 22.1795 112.427 19.3599 110.325 17.2833C108.223 15.2068 105.389 14.0398 102.434 14.0341Z" fill="white"/>
<path d="M103.049 121.277H22.18C16.2987 121.27 10.6604 118.93 6.50221 114.771C2.344 110.612 0.00555782 104.973 0 99.092V89.262C0.00661694 83.3816 2.34556 77.7438 6.50368 73.5857C10.6618 69.4276 16.2995 67.0886 22.18 67.082H103.049C108.93 67.0886 114.568 69.4274 118.727 73.5854C122.886 77.7434 125.226 83.3811 125.234 89.262V99.092C125.227 104.974 122.888 110.613 118.729 114.772C114.57 118.931 108.931 121.27 103.049 121.277ZM22.18 78.012C19.1978 78.0157 16.3389 79.2023 14.2306 81.3114C12.1222 83.4205 10.9366 86.2799 10.934 89.262V99.092C10.9366 102.074 12.1222 104.934 14.2305 107.043C16.3388 109.152 19.1977 110.339 22.18 110.343H103.049C106.032 110.34 108.892 109.154 111.001 107.044C113.111 104.935 114.297 102.075 114.3 99.092V89.262C114.297 86.2791 113.111 83.4191 111.001 81.3099C108.892 79.2008 106.032 78.0147 103.049 78.012H22.18Z" fill="white"/>
<path d="M160.195 164.532H79.3284C73.4484 164.525 67.8111 162.187 63.6531 158.029C59.4951 153.872 57.1558 148.235 57.1484 142.355V132.517C57.155 126.636 59.4939 120.999 63.652 116.841C67.8102 112.682 73.4479 110.344 79.3284 110.337H160.195C166.076 110.344 171.715 112.682 175.874 116.84C180.032 120.998 182.373 126.636 182.38 132.517V142.355C182.372 148.235 180.031 153.872 175.872 158.03C171.714 162.187 166.076 164.525 160.195 164.532ZM79.3284 121.271C76.3469 121.275 73.4886 122.461 71.3803 124.569C69.2721 126.677 68.0861 129.535 68.0824 132.517V142.355C68.0869 145.336 69.2732 148.193 71.3814 150.301C73.4895 152.409 76.3474 153.594 79.3284 153.598H160.195C163.178 153.596 166.037 152.411 168.147 150.303C170.256 148.195 171.444 145.337 171.448 142.355V132.517C171.444 129.534 170.257 126.675 168.148 124.567C166.038 122.458 163.178 121.273 160.195 121.271H79.3284Z" fill="white"/>
</g>
<defs>
<clipPath id="clip0_3201_166">
<rect width="195" height="165" fill="white"/>
</clipPath>
</defs>
</svg>
