<svg width="186" height="186" viewBox="0 0 186 186" fill="none" xmlns="http://www.w3.org/2000/svg">
<g clip-path="url(#clip0_3201_180)">
<path d="M92.532 0C110.833 0 128.723 5.42691 143.94 15.5945C159.157 25.762 171.017 40.2135 178.02 57.1215C185.024 74.0295 186.856 92.6346 183.286 110.584C179.716 128.534 170.903 145.021 157.962 157.962C145.021 170.903 128.534 179.716 110.584 183.286C92.6346 186.856 74.0295 185.024 57.1215 178.02C40.2135 171.017 25.762 159.157 15.5945 143.94C5.42691 128.723 0 110.833 0 92.532C0.0277908 67.9995 9.78559 44.4798 27.1327 27.1327C44.4798 9.78559 67.9995 0.0277908 92.532 0ZM92.532 176.064C109.053 176.064 125.203 171.165 138.94 161.986C152.677 152.808 163.383 139.762 169.706 124.498C176.028 109.235 177.682 92.4393 174.459 76.2357C171.236 60.0321 163.28 45.1481 151.598 33.466C139.916 21.7838 125.032 13.8281 108.828 10.605C92.6247 7.38194 75.8292 9.03616 60.5657 15.3585C45.3022 21.6808 32.2563 32.3873 23.0777 46.1241C13.8991 59.8609 9 76.0109 9 92.532C9.02514 114.678 17.8339 135.91 33.4937 151.57C49.1536 167.23 70.3857 176.039 92.532 176.064Z" fill="#3B564D"/>
<path d="M92.5313 132.245C91.6413 132.245 90.7712 131.981 90.0312 131.487C89.2912 130.992 88.7144 130.289 88.3738 129.467C88.0332 128.645 87.9441 127.74 88.1177 126.867C88.2914 125.994 88.7199 125.192 89.3493 124.563L121.38 92.5319L89.3493 60.5009C88.5054 59.657 88.0313 58.5124 88.0313 57.3189C88.0313 56.7279 88.1477 56.1428 88.3738 55.5968C88.6 55.0508 88.9314 54.5547 89.3493 54.1369C89.7672 53.719 90.2632 53.3875 90.8092 53.1614C91.3552 52.9352 91.9403 52.8188 92.5313 52.8188C93.7248 52.8188 94.8694 53.293 95.7133 54.1369L130.926 89.3499C131.344 89.7677 131.676 90.2638 131.902 90.8098C132.128 91.3558 132.244 91.9409 132.244 92.5319C132.244 93.1228 132.128 93.708 131.902 94.254C131.676 94.7999 131.344 95.296 130.926 95.7139L95.7133 130.927C95.2959 131.345 94.7999 131.677 94.2538 131.903C93.7077 132.13 93.1224 132.246 92.5313 132.245Z" fill="#3B564D"/>
<path d="M127.746 97.0322H57.3203C56.1268 97.0322 54.9822 96.5581 54.1383 95.7142C53.2944 94.8703 52.8203 93.7257 52.8203 92.5322C52.8203 91.3388 53.2944 90.1942 54.1383 89.3502C54.9822 88.5063 56.1268 88.0322 57.3203 88.0322H127.746C128.94 88.0322 130.084 88.5063 130.928 89.3502C131.772 90.1942 132.246 91.3388 132.246 92.5322C132.246 93.7257 131.772 94.8703 130.928 95.7142C130.084 96.5581 128.94 97.0322 127.746 97.0322Z" fill="#3B564D"/>
</g>
<defs>
<clipPath id="clip0_3201_180">
<rect width="186" height="186" fill="white"/>
</clipPath>
</defs>
</svg>
