<svg width="186" height="186" viewBox="0 0 186 186" fill="none" xmlns="http://www.w3.org/2000/svg">
<g clip-path="url(#clip0_3201_176)">
<path d="M92.5321 185.064C74.231 185.064 56.3408 179.637 41.124 169.47C25.9072 159.302 14.0472 144.85 7.04363 127.942C0.0400968 111.034 -1.79235 92.4294 1.77802 74.48C5.34838 56.5305 14.1612 40.0429 27.102 27.1021C40.0429 14.1612 56.5305 5.34839 74.48 1.77802C92.4294 -1.79235 111.035 0.0400982 127.943 7.04363C144.851 14.0472 159.302 25.9072 169.47 41.124C179.638 56.3409 185.064 74.231 185.064 92.5321C185.037 117.064 175.279 140.584 157.932 157.931C140.585 175.278 117.065 185.036 92.5321 185.064ZM92.5321 9.00005C76.011 9.00005 59.8609 13.8991 46.1242 23.0778C32.3874 32.2564 21.6809 45.3023 15.3585 60.5658C9.0362 75.8292 7.38199 92.6247 10.6051 108.828C13.8282 125.032 21.7839 139.916 33.466 151.598C45.1482 163.28 60.0321 171.236 76.2358 174.459C92.4394 177.682 109.235 176.028 124.499 169.705C139.762 163.383 152.808 152.677 161.987 138.94C171.165 125.203 176.064 109.053 176.064 92.5321C176.039 70.3857 167.231 49.1536 151.571 33.4938C135.911 17.834 114.679 9.02519 92.5321 9.00005Z" fill="#3B564D"/>
<path d="M92.5334 52.8193C93.4234 52.8193 94.2934 53.0832 95.0334 53.5777C95.7735 54.0721 96.3503 54.7749 96.6909 55.5972C97.0315 56.4195 97.1206 57.3243 96.9469 58.1972C96.7733 59.0701 96.3447 59.8719 95.7154 60.5013L63.6844 92.5323L95.7154 124.563C96.5593 125.407 97.0334 126.552 97.0334 127.745C97.0334 128.336 96.917 128.921 96.6908 129.467C96.4647 130.013 96.1332 130.509 95.7154 130.927C95.2975 131.345 94.8014 131.676 94.2554 131.903C93.7095 132.129 93.1243 132.245 92.5334 132.245C91.3399 132.245 90.1953 131.771 89.3514 130.927L54.1384 95.7143C53.7205 95.2964 53.389 94.8003 53.1629 94.2544C52.9367 93.7084 52.8203 93.1232 52.8203 92.5323C52.8203 91.9413 52.9367 91.3562 53.1629 90.8102C53.389 90.2642 53.7205 89.7682 54.1384 89.3503L89.3514 54.1373C89.7688 53.7188 90.2648 53.3869 90.8108 53.1607C91.3569 52.9346 91.9423 52.8185 92.5334 52.8193Z" fill="#3B564D"/>
<path d="M57.3203 88.0317H127.746C128.94 88.0317 130.084 88.5058 130.928 89.3498C131.772 90.1937 132.246 91.3383 132.246 92.5317C132.246 93.7252 131.772 94.8698 130.928 95.7137C130.084 96.5576 128.94 97.0317 127.746 97.0317H57.3203C56.1268 97.0317 54.9822 96.5576 54.1383 95.7137C53.2944 94.8698 52.8203 93.7252 52.8203 92.5317C52.8203 91.3383 53.2944 90.1937 54.1383 89.3498C54.9822 88.5058 56.1268 88.0317 57.3203 88.0317Z" fill="#3B564D"/>
</g>
<defs>
<clipPath id="clip0_3201_176">
<rect width="186" height="186" fill="white"/>
</clipPath>
</defs>
</svg>
