<svg width="166" height="166" viewBox="0 0 166 166" fill="none" xmlns="http://www.w3.org/2000/svg">
<path d="M64.559 156.4C32.216 156.4 6 129.445 6 96.2C6 62.955 32.216 36 64.559 36C96.902 36 123.118 62.955 123.118 96.2C123.118 129.445 96.902 156.4 64.559 156.4Z" fill="#3B564D"/>
<path d="M123.391 13.4351L151.676 41.7194C155.19 45.2341 155.19 50.9326 151.676 54.4473L82.5476 123.575C81.2912 124.831 79.6911 125.688 77.9487 126.036L43.7611 132.874C37.5671 134.112 32.0574 128.752 33.1257 122.526L39.1781 87.2555C39.4928 85.4213 40.3685 83.7297 41.6844 82.4137L110.663 13.4351C114.178 9.9204 119.877 9.9204 123.391 13.4351Z" stroke="white" stroke-width="10"/>
<path d="M56.0274 69L56.0273 89.056C56.0273 93.4743 59.609 97.0561 64.0273 97.0561H73.4322C77.7589 97.0561 81.3015 100.496 81.4287 104.821L81.9074 121.098" stroke="white" stroke-width="10"/>
</svg>
