<svg width="302" height="330" viewBox="0 0 302 330" fill="none" xmlns="http://www.w3.org/2000/svg">
<g clip-path="url(#clip0_3201_237)">
<path d="M255.926 222.199C255.928 243.488 249.616 264.3 237.789 282.002C225.962 299.704 209.152 313.502 189.483 321.65C169.815 329.798 148.171 331.93 127.291 327.777C106.41 323.624 87.2304 313.373 72.1763 298.319C57.1222 283.266 46.8702 264.086 42.7168 243.205C38.5634 222.325 40.6951 200.682 48.8425 181.013C56.9898 161.344 70.7868 144.533 88.4886 132.706C106.19 120.879 127.002 114.566 148.291 114.567C176.838 114.567 204.214 125.907 224.4 146.091C244.585 166.276 255.926 193.653 255.926 222.199Z" fill="#979B8A"/>
<path d="M50.157 302.191H34.751C25.5393 302.181 16.7076 298.518 10.193 292.005C3.67836 285.492 0.0127044 276.662 0 267.45V140.781C0.0127044 131.569 3.67836 122.739 10.193 116.226C16.7076 109.713 25.5393 106.05 34.751 106.04H50.157C59.3682 106.049 68.1996 109.712 74.713 116.225C81.2264 122.739 84.8897 131.57 84.899 140.781V267.45C84.8897 276.661 81.2264 285.493 74.713 292.006C68.1996 298.519 59.3682 302.182 50.157 302.191ZM34.751 123.167C30.0798 123.171 25.6009 125.028 22.2969 128.33C18.9929 131.632 17.1336 136.11 17.127 140.781V267.45C17.1334 272.121 18.9925 276.6 22.2965 279.902C25.6005 283.204 30.0796 285.061 34.751 285.065H50.157C54.827 285.059 59.3041 283.201 62.6063 279.899C65.9084 276.597 67.7662 272.12 67.772 267.45V140.781C67.7659 136.111 65.9081 131.634 62.6059 128.332C59.3037 125.03 54.8268 123.173 50.157 123.167H34.751Z" fill="white"/>
<path d="M155.988 269.511H140.582C131.371 269.5 122.541 265.837 116.028 259.324C109.515 252.811 105.851 243.981 105.84 234.77V135.521C105.851 126.31 109.515 117.48 116.028 110.967C122.541 104.454 131.371 100.79 140.582 100.78H155.988C165.198 100.79 174.027 104.454 180.539 110.967C187.051 117.48 190.713 126.311 190.722 135.521V234.77C190.713 243.98 187.051 252.81 180.539 259.323C174.027 265.836 165.198 269.5 155.988 269.511ZM140.582 117.911C135.912 117.915 131.435 119.772 128.133 123.073C124.831 126.375 122.973 130.851 122.967 135.521V234.77C122.971 239.44 124.829 243.918 128.131 247.221C131.434 250.523 135.911 252.38 140.582 252.385H155.988C160.657 252.38 165.134 250.522 168.435 247.22C171.737 243.917 173.592 239.439 173.595 234.77V135.521C173.591 130.852 171.735 126.376 168.434 123.074C165.133 119.773 160.657 117.916 155.988 117.911H140.582Z" fill="white"/>
<path d="M266.509 296.931H251.103C241.891 296.921 233.059 293.258 226.545 286.745C220.03 280.232 216.364 271.402 216.352 262.19V135.521C216.364 126.309 220.03 117.478 226.545 110.966C233.059 104.453 241.891 100.79 251.103 100.78H266.509C275.718 100.791 284.548 104.455 291.059 110.968C297.571 117.481 301.233 126.311 301.242 135.521V262.19C301.233 271.4 297.571 280.23 291.059 286.743C284.548 293.256 275.718 296.92 266.509 296.931ZM251.103 117.911C246.432 117.913 241.953 119.769 238.648 123.071C235.344 126.372 233.485 130.85 233.479 135.521V262.19C233.485 266.861 235.344 271.339 238.648 274.642C241.952 277.944 246.431 279.801 251.103 279.805H266.509C271.178 279.799 275.654 277.941 278.955 274.638C282.256 271.336 284.112 266.859 284.116 262.19V135.521C284.112 130.852 282.255 126.376 278.954 123.074C275.653 119.773 271.177 117.916 266.509 117.911H251.103Z" fill="white"/>
<path d="M155.988 87.842H140.582C131.373 87.8319 122.543 84.1698 116.03 77.6587C109.517 71.1477 105.853 62.3193 105.84 53.11V34.741C105.851 25.5303 109.515 16.6999 116.028 10.187C122.541 3.67416 131.371 0.0105861 140.582 0H155.988C165.198 0.01059 174.027 3.67442 180.539 10.1875C187.051 16.7006 190.713 25.531 190.722 34.741V53.11C190.711 62.3186 187.048 71.147 180.537 77.6582C174.025 84.1695 165.196 87.8319 155.988 87.842ZM140.582 17.127C135.912 17.1328 131.435 18.9904 128.133 22.2924C124.831 25.5944 122.973 30.0712 122.967 34.741V53.11C122.973 57.779 124.831 62.2548 128.134 65.5555C131.436 68.8561 135.913 70.712 140.582 70.716H155.988C160.656 70.7118 165.132 68.8555 168.433 65.5547C171.734 62.2539 173.59 57.7782 173.595 53.11V34.741C173.591 30.072 171.734 25.5953 168.434 22.2932C165.133 18.991 160.657 17.1331 155.988 17.127H140.582Z" fill="white"/>
</g>
<defs>
<clipPath id="clip0_3201_237">
<rect width="302" height="330" fill="white"/>
</clipPath>
</defs>
</svg>
