<svg width="238" height="261" viewBox="0 0 238 261" fill="none" xmlns="http://www.w3.org/2000/svg">
<g clip-path="url(#clip0_3201_225)">
<path d="M202.024 175.401C202.025 192.207 197.043 208.635 187.707 222.609C178.371 236.583 165.101 247.475 149.575 253.907C134.049 260.339 116.964 262.022 100.481 258.744C83.9981 255.466 68.8575 247.373 56.9739 235.49C45.0903 223.607 36.9974 208.467 33.7187 191.984C30.44 175.501 32.1228 158.416 38.5541 142.89C44.9855 127.364 55.8767 114.093 69.8503 104.757C83.8239 95.4204 100.252 90.4374 117.058 90.438C139.592 90.438 161.203 99.3893 177.137 115.323C193.071 131.256 202.023 152.867 202.024 175.401Z" fill="#979B8A"/>
<path d="M39.593 238.544H27.432C20.1611 238.536 13.1901 235.645 8.04765 230.505C2.90522 225.365 0.0111157 218.395 0 211.124V111.13C0.0100576 103.858 2.90369 96.8877 8.04624 91.7466C13.1888 86.6056 20.1604 83.714 27.432 83.7061H39.593C46.8642 83.7132 53.8355 86.6048 58.9772 91.7462C64.1188 96.8876 67.0106 103.859 67.018 111.13V211.124C67.0095 218.395 64.1172 225.365 58.9757 230.505C53.8343 235.646 46.8635 238.537 39.593 238.544ZM27.432 97.2241C23.7454 97.2272 20.2104 98.6923 17.6025 101.298C14.9945 103.904 13.5264 107.437 13.52 111.124V211.124C13.5264 214.811 14.9945 218.344 17.6025 220.95C20.2104 223.556 23.7454 225.021 27.432 225.024H39.593C43.2785 225.019 46.8118 223.553 49.4183 220.948C52.0248 218.342 53.4919 214.81 53.498 211.124V111.13C53.4935 107.444 52.0271 103.909 49.4204 101.302C46.8137 98.6955 43.2795 97.2288 39.593 97.2241H27.432Z" fill="#3B564D"/>
<path d="M123.133 212.747H110.972C103.701 212.739 96.7302 209.847 91.5889 204.706C86.4475 199.565 83.5553 192.594 83.5469 185.323V106.978C83.5553 99.7073 86.4475 92.7367 91.5889 87.5955C96.7302 82.4543 103.701 79.5624 110.972 79.5542H123.133C130.403 79.5624 137.373 82.4545 142.514 87.5959C147.654 92.7372 150.545 99.7079 150.552 106.978V185.323C150.545 192.593 147.654 199.564 142.514 204.705C137.374 209.847 130.403 212.739 123.133 212.747ZM110.972 93.0732C107.286 93.0766 103.752 94.542 101.145 97.1479C98.5383 99.7538 97.0716 103.287 97.0669 106.973V185.318C97.0716 189.004 98.5383 192.538 101.145 195.143C103.752 197.749 107.286 199.215 110.972 199.218H123.133C126.818 199.215 130.352 197.749 132.958 195.143C135.564 192.537 137.029 189.004 137.033 185.318V106.978C137.029 103.293 135.564 99.7592 132.958 97.1532C130.352 94.5472 126.818 93.0816 123.133 93.0782L110.972 93.0732Z" fill="#3B564D"/>
<path d="M210.374 234.392H198.213C190.942 234.384 183.97 231.493 178.827 226.352C173.685 221.211 170.791 214.24 170.781 206.968V106.978C170.791 99.7066 173.685 92.7358 178.827 87.5948C183.97 82.4537 190.942 79.5621 198.213 79.5542H210.374C217.644 79.5627 224.614 82.4549 229.754 87.5962C234.895 92.7376 237.785 99.7081 237.792 106.978V206.968C237.785 214.238 234.895 221.209 229.754 226.35C224.614 231.492 217.644 234.384 210.374 234.392ZM198.213 93.0732C194.526 93.0753 190.991 94.5401 188.383 97.146C185.774 99.752 184.306 103.286 184.301 106.973V206.963C184.308 210.65 185.776 214.183 188.384 216.789C190.992 219.395 194.527 220.86 198.213 220.863H210.374C214.059 220.859 217.592 219.393 220.198 216.787C222.804 214.181 224.27 210.648 224.274 206.963V106.978C224.271 103.293 222.805 99.7592 220.199 97.1532C217.593 94.5472 214.06 93.0816 210.374 93.0782L198.213 93.0732Z" fill="#3B564D"/>
<path d="M123.133 69.341H110.972C103.702 69.3331 96.7323 66.4422 91.591 61.3025C86.4498 56.1627 83.5569 49.1937 83.5469 41.924V27.424C83.5553 20.1531 86.4475 13.1825 91.5889 8.0413C96.7302 2.90011 103.701 0.00820446 110.972 0H123.133C130.403 0.00820731 137.373 2.90031 142.514 8.04167C147.654 13.183 150.545 20.1537 150.552 27.424V41.924C150.543 49.1932 147.652 56.1622 142.512 61.3021C137.371 66.442 130.402 69.3331 123.133 69.341ZM110.972 13.519C107.286 13.5238 103.753 14.9896 101.147 17.5952C98.54 20.2008 97.0729 23.7335 97.0669 27.419V41.919C97.0714 45.605 98.5379 49.1387 101.145 51.7446C103.752 54.3505 107.286 55.8158 110.972 55.819H123.133C126.818 55.8161 130.352 54.3507 132.958 51.7446C135.565 49.1384 137.03 45.6046 137.033 41.919V27.419C137.028 23.7339 135.562 20.201 132.957 17.5952C130.351 14.9894 126.818 13.5235 123.133 13.519H110.972Z" fill="#3B564D"/>
</g>
<defs>
<clipPath id="clip0_3201_225">
<rect width="238" height="261" fill="white"/>
</clipPath>
</defs>
</svg>
