<svg width="242" height="265" viewBox="0 0 242 265" fill="none" xmlns="http://www.w3.org/2000/svg">
<g clip-path="url(#clip0_3201_231)">
<path d="M205.523 178.433C205.524 195.531 200.454 212.245 190.956 226.461C181.457 240.677 167.957 251.758 152.161 258.301C136.365 264.845 118.983 266.557 102.214 263.221C85.4452 259.886 70.0418 251.653 57.952 239.563C45.8622 227.473 37.629 212.07 34.2936 195.301C30.9583 178.532 32.6705 161.15 39.2138 145.354C45.7571 129.558 56.8376 116.058 71.0541 106.559C85.2705 97.0607 101.984 91.9914 119.082 91.9922C142.007 91.994 163.992 101.102 180.203 117.312C196.413 133.523 205.521 155.508 205.523 178.433Z" fill="#3B564D"/>
<path d="M40.28 242.678H27.908C20.5101 242.67 13.4174 239.728 8.1856 234.497C2.95381 229.267 0.0100574 222.175 0 214.777V113.048C0.010322 105.65 2.95419 98.5585 8.18595 93.3282C13.4177 88.098 20.5102 85.1562 27.908 85.1479H40.28C47.6763 85.1567 54.7671 88.0991 59.9965 93.3297C65.2259 98.5602 68.1669 105.652 68.174 113.048V214.777C68.1669 222.173 65.2259 229.265 59.9965 234.495C54.7671 239.726 47.6763 242.669 40.28 242.678ZM27.908 98.9019C24.1567 98.9054 20.5598 100.397 17.9066 103.049C15.2533 105.701 13.7603 109.297 13.755 113.048V214.777C13.76 218.529 15.2531 222.125 17.9066 224.777C20.5601 227.43 24.1573 228.921 27.909 228.924H40.28C44.0298 228.919 47.6245 227.427 50.2754 224.774C52.9263 222.122 54.4168 218.527 54.42 214.777V113.048C54.4166 109.298 52.9259 105.703 50.2751 103.051C47.6242 100.399 44.0297 98.907 40.28 98.9019H27.908Z" fill="white"/>
<path d="M125.269 216.448H112.896C105.499 216.439 98.4078 213.497 93.1775 208.267C87.9471 203.036 85.0048 195.945 84.9961 188.548V108.839C85.0048 101.442 87.9471 94.3507 93.1775 89.1203C98.4078 83.89 105.499 80.9477 112.896 80.939H125.269C132.665 80.9477 139.756 83.8902 144.986 89.1207C150.215 94.3512 153.156 101.443 153.163 108.839V188.547C153.156 195.943 150.215 203.035 144.986 208.265C139.756 213.496 132.665 216.438 125.269 216.447M112.896 94.693C109.145 94.6967 105.55 96.1882 102.897 98.8403C100.245 101.492 98.7538 105.088 98.7501 108.839V188.547C98.7535 192.298 100.245 195.894 102.897 198.547C105.55 201.199 109.146 202.691 112.897 202.694H125.269C129.019 202.69 132.615 201.198 135.266 198.546C137.917 195.893 139.407 192.297 139.409 188.547V108.839C139.407 105.089 137.917 101.493 135.266 98.84C132.615 96.1876 129.019 94.6957 125.269 94.692L112.896 94.693Z" fill="white"/>
<path d="M214.022 238.469H201.65C194.252 238.461 187.16 235.519 181.928 230.289C176.696 225.058 173.752 217.967 173.742 210.569V108.839C173.752 101.441 176.696 94.3495 181.928 89.1193C187.16 83.889 194.252 80.9472 201.65 80.939H214.022C221.418 80.9477 228.509 83.8902 233.739 89.1207C238.968 94.3512 241.909 101.443 241.916 108.839V210.569C241.909 217.965 238.968 225.057 233.739 230.287C228.509 235.518 221.418 238.46 214.022 238.469ZM201.65 94.693C197.898 94.6953 194.301 96.1863 191.648 98.8384C188.994 101.491 187.501 105.087 187.497 108.839V210.569C187.502 214.321 188.995 217.917 191.649 220.569C194.302 223.222 197.899 224.713 201.651 224.716H214.022C217.772 224.711 221.367 223.219 224.018 220.566C226.668 217.914 228.159 214.319 228.162 210.569V108.839C228.16 105.089 226.67 101.493 224.019 98.84C221.368 96.1876 217.772 94.6957 214.022 94.692L201.65 94.693Z" fill="white"/>
<path d="M125.269 70.547H112.896C105.5 70.5385 98.4095 67.5972 93.1793 62.368C87.949 57.1389 85.0062 50.0489 84.9961 42.653V27.9C85.0048 20.5031 87.9471 13.4117 93.1775 8.18137C98.4078 2.95099 105.499 0.00873349 112.896 0H125.269C132.665 0.00873642 139.756 2.95119 144.986 8.18173C150.215 13.4123 153.156 20.5037 153.163 27.9V42.653C153.155 50.0483 150.213 57.1384 144.984 62.3677C139.754 67.597 132.664 70.5385 125.269 70.547ZM112.896 13.755C109.146 13.76 105.551 15.2519 102.899 17.9035C100.247 20.555 98.7554 24.15 98.7501 27.9V42.653C98.7551 46.4028 100.247 49.9975 102.9 52.6484C105.552 55.2993 109.147 56.7898 112.897 56.793H125.269C129.018 56.7896 132.613 55.2987 135.264 52.6477C137.915 49.9967 139.406 46.4021 139.409 42.653V27.9C139.406 24.1502 137.915 20.5547 135.264 17.9025C132.614 15.2504 129.019 13.758 125.269 13.753L112.896 13.755Z" fill="white"/>
</g>
<defs>
<clipPath id="clip0_3201_231">
<rect width="242" height="265" fill="white"/>
</clipPath>
</defs>
</svg>
