<svg width="235" height="266" viewBox="0 0 235 266" fill="none" xmlns="http://www.w3.org/2000/svg">
<g clip-path="url(#clip0_3208_131)">
<path d="M234.922 115.457C234.923 138.293 228.152 160.617 215.465 179.606C202.779 198.594 184.746 213.393 163.648 222.133C142.55 230.873 119.335 233.16 96.937 228.705C74.5393 224.25 53.9656 213.253 37.8178 197.105C21.67 180.957 10.6733 160.384 6.21836 137.986C1.76343 115.588 4.05036 92.3726 12.79 71.2747C21.5295 50.1767 36.3292 32.1442 55.3175 19.4576C74.3057 6.77094 96.6296 -1.22328e-05 119.466 0.000976671C150.087 0.00150709 179.453 12.1658 201.105 33.8178C222.757 55.4699 234.922 84.8363 234.922 115.457Z" fill="#979B8A"/>
<path d="M113.519 236.517L103.919 234.808C-18.5565 212.818 3.36146 80.3672 3.59046 79.0262L5.11946 70.4102L13.8005 71.5102C129.959 86.2452 114.83 225.439 114.665 226.835L113.519 236.517ZM20.5935 91.2532C18.3065 117.873 18.8575 194.437 97.0375 214.527C97.3775 202.576 96.8175 181.642 90.7915 160.34C79.8785 121.86 56.2895 98.6452 20.5935 91.2532Z" fill="#3B564D"/>
<path d="M114.087 238.281C111.861 238.284 109.657 237.841 107.607 236.976C105.556 236.111 103.7 234.842 102.149 233.246C100.598 231.65 99.3841 229.758 98.5787 227.683C97.7733 225.608 97.3931 223.393 97.4608 221.168L97.6448 215.914C97.7342 208.364 99.133 200.886 101.779 193.814C118.671 151.218 169.064 147.057 171.214 146.901L178.939 146.331L180.795 153.873C180.942 154.479 194.941 215.28 118.736 237.611C117.227 238.056 115.661 238.282 114.088 238.282M163.691 166.742C150.891 169.691 127.802 178.022 118.864 200.583C117.003 205.695 116.037 211.09 116.007 216.53L115.907 219.267C157.435 206.232 163.525 180.254 163.691 166.742Z" fill="#3B564D"/>
<path d="M148.587 132.598H130.907C124.376 132.591 118.114 129.993 113.496 125.374C108.879 120.756 106.282 114.493 106.277 107.962V90.2789C106.284 83.749 108.881 77.4885 113.499 72.8715C118.117 68.2544 124.377 65.6579 130.907 65.6519H148.587C155.117 65.6587 161.377 68.2556 165.994 72.8725C170.611 77.4895 173.207 83.7495 173.214 90.2789V107.962C173.209 114.493 170.613 120.755 165.996 125.373C161.379 129.992 155.118 132.59 148.587 132.598ZM130.907 84.0239C129.249 84.0273 127.66 84.6875 126.487 85.86C125.315 87.0325 124.655 88.6217 124.651 90.2799V107.962C124.653 109.621 125.312 111.213 126.485 112.387C127.658 113.561 129.248 114.223 130.907 114.227H148.587C150.247 114.224 151.839 113.563 153.012 112.389C154.185 111.214 154.843 109.622 154.843 107.962V90.2789C154.841 88.6202 154.182 87.0301 153.009 85.8572C151.836 84.6844 150.246 84.0247 148.587 84.0229L130.907 84.0239Z" fill="#3B564D"/>
<path d="M176.055 247.631H33.3438V266.003H176.055V247.631Z" fill="#3B564D"/>
</g>
<defs>
<clipPath id="clip0_3208_131">
<rect width="234.922" height="266.003" fill="white"/>
</clipPath>
</defs>
</svg>
