<svg width="185" height="171" viewBox="0 0 185 171" fill="none" xmlns="http://www.w3.org/2000/svg">
<g clip-path="url(#clip0_3201_51)">
<path d="M184.175 67.778C184.176 81.1842 180.201 94.2894 172.753 105.436C165.306 116.583 154.719 125.272 142.334 130.402C129.948 135.533 116.319 136.875 103.171 134.26C90.0223 131.644 77.9446 125.188 68.4652 115.709C58.9858 106.229 52.5303 94.1511 49.9153 81.0025C47.3003 67.8538 48.6431 54.225 53.774 41.8396C58.9048 29.4541 67.5933 18.8683 78.7405 11.4209C89.8878 3.97353 102.993 -0.000988734 116.399 1.84498e-07C134.375 0.000265394 151.615 7.14123 164.325 19.852C177.036 32.5628 184.177 49.8022 184.177 67.778" fill="#979B8A"/>
<path d="M93.509 113.085H28.287C26.8568 113.085 25.4852 112.517 24.4739 111.505C23.4626 110.494 22.8945 109.122 22.8945 107.692C22.8945 106.262 23.4626 104.891 24.4739 103.879C25.4852 102.868 26.8568 102.3 28.287 102.3H93.509C94.9392 102.3 96.3108 102.868 97.3221 103.879C98.3333 104.891 98.9015 106.262 98.9015 107.692C98.9015 109.122 98.3333 110.494 97.3221 111.505C96.3108 112.517 94.9392 113.085 93.509 113.085Z" fill="white"/>
<path d="M64.6602 136.623H28.6542C27.224 136.623 25.8524 136.055 24.8411 135.043C23.8298 134.032 23.2617 132.661 23.2617 131.23C23.2617 129.8 23.8298 128.429 24.8411 127.417C25.8524 126.406 27.224 125.838 28.6542 125.838H64.6602C66.0903 125.838 67.462 126.406 68.4732 127.417C69.4845 128.429 70.0527 129.8 70.0527 131.23C70.0527 132.661 69.4845 134.032 68.4732 135.043C67.462 136.055 66.0903 136.623 64.6602 136.623Z" fill="white"/>
<path d="M94.511 170.412H27.283C20.0502 170.405 13.1157 167.528 8.00131 162.414C2.88692 157.299 0.0104082 150.365 0.0029959 143.132V56.712C-0.0451501 54.8467 0.488029 53.0126 1.52866 51.4638C2.56929 49.9151 4.06585 48.7283 5.811 48.068C7.73226 47.3824 9.81567 47.2924 11.7889 47.8098C13.7621 48.3272 15.5333 49.4279 16.871 50.968C22.048 56.781 30.546 69.599 29.144 90.16C29.1139 90.8729 28.939 91.5723 28.6301 92.2156C28.3211 92.8588 27.8845 93.4324 27.3467 93.9016C26.809 94.3707 26.1815 94.7256 25.5023 94.9445C24.8231 95.1634 24.1065 95.2418 23.396 95.175C21.9693 95.0762 20.6401 94.4155 19.6999 93.338C18.7598 92.2604 18.2854 90.8538 18.381 89.427C19.346 75.304 14.693 65.884 10.788 60.577V143.13C10.7912 147.505 12.5306 151.7 15.6242 154.794C18.7179 157.887 22.9129 159.627 27.288 159.63H94.511C98.8861 159.627 103.081 157.887 106.175 154.794C109.268 151.7 111.008 147.505 111.011 143.13V66.995C111.008 62.6199 109.268 58.4249 106.175 55.3312C103.081 52.2375 98.8861 50.4981 94.511 50.495H32.946C31.5158 50.495 30.1442 49.9268 29.1329 48.9155C28.1216 47.9042 27.5535 46.5326 27.5535 45.1025C27.5535 43.6723 28.1216 42.3007 29.1329 41.2894C30.1442 40.2781 31.5158 39.71 32.946 39.71H94.511C101.744 39.7184 108.677 42.5953 113.792 47.7094C118.906 52.8236 121.783 59.7575 121.791 66.99V143.126C121.783 150.358 118.906 157.292 113.792 162.406C108.677 167.521 101.744 170.397 94.511 170.406" fill="white"/>
</g>
<defs>
<clipPath id="clip0_3201_51">
<rect width="185" height="171" fill="white"/>
</clipPath>
</defs>
</svg>
