<svg width="239" height="221" viewBox="0 0 239 221" fill="none" xmlns="http://www.w3.org/2000/svg">
<g clip-path="url(#clip0_3201_243)">
<path d="M83.8297 177.143H37.1478C36.2296 177.143 35.3204 176.962 34.4721 176.611C33.6239 176.26 32.8532 175.745 32.2039 175.095C31.5547 174.446 31.0397 173.675 30.6884 172.827C30.337 171.979 30.1562 171.07 30.1562 170.152C30.1562 169.234 30.337 168.324 30.6884 167.476C31.0397 166.628 31.5547 165.857 32.2039 165.208C32.8532 164.559 33.6239 164.044 34.4721 163.692C35.3204 163.341 36.2296 163.16 37.1478 163.16H83.8297C84.7478 163.16 85.6571 163.341 86.5053 163.692C87.3536 164.044 88.1242 164.559 88.7734 165.208C89.4226 165.857 89.9377 166.628 90.2891 167.476C90.6404 168.324 90.8212 169.234 90.8212 170.152C90.8212 171.07 90.6404 171.979 90.2891 172.827C89.9377 173.675 89.4226 174.446 88.7734 175.095C88.1242 175.745 87.3536 176.26 86.5053 176.611C85.6571 176.962 84.7478 177.143 83.8297 177.143Z" fill="#3B564D"/>
<path d="M238.787 87.875C238.788 105.256 233.635 122.248 223.979 136.7C214.323 151.153 200.598 162.417 184.54 169.069C168.482 175.721 150.812 177.462 133.765 174.072C116.717 170.681 101.058 162.312 88.7676 150.021C76.477 137.731 68.1069 122.072 64.716 105.025C61.3251 87.9772 63.0655 70.3071 69.7173 54.2489C76.369 38.1906 87.6333 24.4656 102.086 14.8093C116.538 5.1531 133.529 -0.000593276 150.91 5.1225e-08C174.216 4.5189e-08 196.568 9.25817 213.048 25.7379C229.528 42.2176 238.787 64.5689 238.787 87.875Z" fill="#979B8A"/>
<path d="M121.23 146.626H36.6673C35.7492 146.626 34.84 146.445 33.9918 146.094C33.1435 145.743 32.3728 145.228 31.7236 144.578C31.0743 143.929 30.5594 143.158 30.208 142.31C29.8566 141.462 29.6758 140.553 29.6758 139.635C29.6758 138.716 29.8566 137.807 30.208 136.959C30.5594 136.111 31.0743 135.34 31.7236 134.691C32.3728 134.042 33.1435 133.527 33.9918 133.175C34.84 132.824 35.7492 132.643 36.6673 132.643H121.23C122.148 132.643 123.058 132.824 123.906 133.175C124.754 133.527 125.525 134.042 126.174 134.691C126.823 135.34 127.338 136.111 127.69 136.959C128.041 137.807 128.222 138.716 128.222 139.635C128.222 140.553 128.041 141.462 127.69 142.31C127.338 143.158 126.823 143.929 126.174 144.578C125.525 145.228 124.754 145.743 123.906 146.094C123.058 146.445 122.148 146.626 121.23 146.626Z" fill="#3B564D"/>
<path d="M122.538 220.942H35.3739C25.9963 220.933 17.0055 217.203 10.3744 210.572C3.74333 203.942 0.0136762 194.951 0.00388124 185.573V73.5272C-0.0585155 71.1089 0.632752 68.731 1.98191 66.723C3.33107 64.7151 5.27133 63.1764 7.53388 62.3202C10.025 61.4314 12.7264 61.3149 15.2848 61.9859C17.8432 62.6569 20.1396 64.0842 21.8739 66.0812C28.5859 73.6182 39.6049 90.2362 37.7869 116.894C37.7477 117.818 37.5208 118.725 37.1201 119.559C36.7194 120.393 36.1532 121.136 35.456 121.744C34.7588 122.353 33.9451 122.812 33.0646 123.096C32.184 123.38 31.2549 123.481 30.3339 123.394C28.4843 123.266 26.7612 122.409 25.5426 121.012C24.324 119.615 23.7095 117.791 23.8339 115.941C25.0849 97.6312 19.0519 85.4172 13.9899 78.5412V185.573C13.9957 191.244 16.2508 196.68 20.2604 200.69C24.27 204.699 29.7065 206.954 35.3769 206.96H122.541C128.211 206.954 133.648 204.699 137.657 200.69C141.667 196.68 143.922 191.244 143.928 185.573V86.8612C143.922 81.1908 141.667 75.7543 137.657 71.7448C133.648 67.7352 128.211 65.48 122.541 65.4742H42.7149C41.7967 65.4742 40.8876 65.2934 40.0393 64.942C39.1911 64.5907 38.4204 64.0757 37.7711 63.4264C37.1219 62.7772 36.6069 62.0065 36.2556 61.1582C35.9042 60.31 35.7234 59.4008 35.7234 58.4827C35.7234 57.5646 35.9042 56.6554 36.2556 55.8072C36.6069 54.9589 37.1219 54.1882 37.7711 53.539C38.4204 52.8898 39.1911 52.3748 40.0393 52.0234C40.8876 51.6721 41.7967 51.4912 42.7149 51.4912H122.538C131.915 51.5018 140.905 55.2315 147.536 61.8622C154.167 68.4928 157.897 77.4829 157.908 86.8602V185.571C157.897 194.948 154.167 203.939 147.536 210.569C140.905 217.2 131.915 220.93 122.538 220.94" fill="#3B564D"/>
</g>
<defs>
<clipPath id="clip0_3201_243">
<rect width="239" height="221" fill="white"/>
</clipPath>
</defs>
</svg>
