<svg width="254" height="235" viewBox="0 0 254 235" fill="none" xmlns="http://www.w3.org/2000/svg">
<g clip-path="url(#clip0_3201_248)">
<path d="M88.8817 187.827H39.3817C38.4082 187.827 37.4442 187.635 36.5448 187.263C35.6455 186.89 34.8283 186.344 34.1399 185.656C33.4515 184.967 32.9056 184.15 32.5331 183.251C32.1605 182.351 31.9688 181.387 31.9688 180.414C31.9688 179.44 32.1605 178.477 32.5331 177.577C32.9056 176.678 33.4515 175.861 34.1399 175.172C34.8283 174.484 35.6455 173.938 36.5448 173.565C37.4442 173.193 38.4082 173.001 39.3817 173.001H88.8817C89.8552 173.001 90.8191 173.193 91.7185 173.565C92.6179 173.938 93.4351 174.484 94.1235 175.172C94.8118 175.861 95.3579 176.678 95.7304 177.577C96.103 178.477 96.2948 179.44 96.2948 180.414C96.2948 181.387 96.103 182.351 95.7304 183.251C95.3579 184.15 94.8118 184.967 94.1235 185.656C93.4351 186.344 92.6179 186.89 91.7185 187.263C90.8191 187.635 89.8552 187.827 88.8817 187.827Z" fill="white"/>
<path d="M253.186 93.174C253.188 111.604 247.724 129.62 237.486 144.945C227.247 160.269 212.695 172.214 195.668 179.267C178.641 186.321 159.905 188.167 141.829 184.572C123.753 180.977 107.15 172.103 94.1174 159.071C81.0853 146.039 72.2103 129.436 68.6148 111.36C65.0192 93.284 66.8647 74.548 73.9177 57.521C80.9708 40.4941 92.9147 25.9411 108.239 15.7024C123.563 5.46368 141.579 -0.000791008 160.009 8.58831e-08C184.721 7.30747e-08 208.42 9.81642 225.894 27.2899C243.368 44.7633 253.185 68.4624 253.186 93.174Z" fill="#3B564D"/>
<path d="M128.537 155.472H38.8739C36.9078 155.472 35.0223 154.691 33.6321 153.301C32.2419 151.911 31.4609 150.025 31.4609 148.059C31.4609 146.093 32.2419 144.207 33.6321 142.817C35.0223 141.427 36.9078 140.646 38.8739 140.646H128.537C130.503 140.646 132.389 141.427 133.779 142.817C135.169 144.207 135.95 146.093 135.95 148.059C135.95 150.025 135.169 151.911 133.779 153.301C132.389 154.691 130.503 155.472 128.537 155.472Z" fill="white"/>
<path d="M129.925 234.266H37.5041C27.5618 234.255 18.0299 230.301 10.9996 223.271C3.96934 216.24 0.0149767 206.708 0.00412427 196.766V77.9632C-0.0621085 75.399 0.670802 72.8777 2.10131 70.7486C3.53182 68.6195 5.5891 66.988 7.98812 66.0802C10.6289 65.1387 13.4921 65.0157 16.2039 65.7272C18.9156 66.4387 21.3497 67.9516 23.1881 70.0682C30.3051 78.0592 41.9881 95.6802 40.0611 123.946C40.0197 124.926 39.7794 125.887 39.3547 126.771C38.9301 127.656 38.33 128.444 37.591 129.089C36.852 129.734 35.9895 130.222 35.0561 130.523C34.1226 130.824 33.1376 130.932 32.1611 130.84C30.2001 130.705 28.3729 129.797 27.0804 128.316C25.788 126.835 25.1359 124.901 25.2671 122.94C26.5941 103.525 20.1961 90.5752 14.8291 83.2802V196.764C14.8355 202.776 17.2267 208.541 21.4781 212.792C25.7296 217.043 31.4938 219.434 37.5061 219.44H129.927C135.939 219.434 141.704 217.043 145.955 212.792C150.207 208.541 152.598 202.776 152.604 196.764V92.0992C152.598 86.0869 150.207 80.3227 145.955 76.0715C141.704 71.8203 135.939 69.4293 129.927 69.4232H45.2881C43.3221 69.4232 41.4365 68.6422 40.0463 67.252C38.6561 65.8617 37.8751 63.9762 37.8751 62.0102C37.8751 60.0441 38.6561 58.1586 40.0463 56.7684C41.4365 55.3782 43.3221 54.5972 45.2881 54.5972H129.925C139.867 54.6093 149.398 58.5641 156.428 65.5941C163.458 72.6241 167.413 82.1553 167.425 92.0972V196.764C167.413 206.706 163.458 216.237 156.428 223.267C149.398 230.297 139.867 234.252 129.925 234.264" fill="white"/>
</g>
<defs>
<clipPath id="clip0_3201_248">
<rect width="254" height="235" fill="white"/>
</clipPath>
</defs>
</svg>
