<svg width="280" height="285" viewBox="0 0 280 285" fill="none" xmlns="http://www.w3.org/2000/svg">
<g clip-path="url(#clip0_3201_214)">
<path d="M279.899 107.632C279.901 128.921 273.589 149.733 261.762 167.435C249.935 185.137 233.124 198.935 213.456 207.083C193.787 215.231 172.144 217.363 151.264 213.21C130.383 209.058 111.203 198.806 96.1489 183.752C81.0948 168.699 70.8428 149.519 66.6894 128.638C62.536 107.758 64.6678 86.115 72.8151 66.4462C80.9624 46.7774 94.7594 29.9663 112.461 18.139C130.163 6.31163 150.975 -0.000791023 172.264 7.43484e-08C200.81 6.32604e-08 228.187 11.3397 248.373 31.5245C268.558 51.7093 279.898 79.0859 279.899 107.632Z" fill="#979B8A"/>
<path d="M150.081 284.952H43.3185C31.8341 284.937 20.8244 280.368 12.7044 272.246C4.58446 264.125 0.0172064 253.114 0.00450547 241.63V104.394C-0.0698835 101.431 0.778474 98.5174 2.43222 96.0573C4.08596 93.5972 6.46335 91.7118 9.23551 90.6619C12.2862 89.5744 15.5941 89.4333 18.7264 90.2569C21.8587 91.0805 24.6693 92.8305 26.7905 95.278C35.0115 104.518 48.4995 124.89 46.2815 157.516C46.223 158.645 45.9378 159.751 45.4431 160.768C44.9483 161.785 44.254 162.692 43.4015 163.435C42.549 164.178 41.5557 164.742 40.4808 165.093C39.4059 165.445 38.2713 165.576 37.1445 165.48C34.8801 165.322 32.7709 164.272 31.2794 162.561C29.788 160.85 29.036 158.617 29.1885 156.352C30.7215 133.942 23.3315 118.973 17.1315 110.538V241.638C17.1368 248.583 19.8971 255.242 24.8066 260.154C29.7161 265.066 36.3737 267.829 43.3185 267.838H150.081C157.027 267.832 163.688 265.07 168.6 260.158C173.512 255.246 176.275 248.585 176.281 241.638V120.725C176.275 113.778 173.512 107.117 168.6 102.205C163.688 97.293 157.027 94.5308 150.081 94.5249H52.3105C50.0393 94.5249 47.8612 93.6227 46.2552 92.0168C44.6492 90.4108 43.747 88.2326 43.747 85.9614C43.747 83.6903 44.6492 81.5121 46.2552 79.9061C47.8612 78.3002 50.0393 77.3979 52.3105 77.3979H150.081C161.567 77.4109 172.58 81.98 180.702 90.1027C188.824 98.2254 193.392 109.238 193.404 120.725V241.63C193.389 253.115 188.82 264.126 180.698 272.248C172.577 280.369 161.566 284.938 150.081 284.952Z" fill="white"/>
<path d="M96.7007 235.704C95.576 235.705 94.4623 235.483 93.4231 235.053C92.384 234.623 91.4398 233.992 90.6445 233.197C89.8492 232.402 89.2183 231.458 88.788 230.419C88.3577 229.38 88.1364 228.266 88.1367 227.141V140.668C88.161 138.413 89.074 136.259 90.6773 134.672C92.2806 133.086 94.4449 132.197 96.7002 132.197C98.9554 132.197 101.12 133.086 102.723 134.672C104.326 136.259 105.239 138.413 105.264 140.668V227.14C105.264 228.265 105.043 229.379 104.612 230.418C104.182 231.457 103.551 232.401 102.756 233.196C101.961 233.991 101.016 234.622 99.9772 235.052C98.9381 235.482 97.8243 235.704 96.6997 235.703" fill="white"/>
<path d="M139.933 192.476H53.4502C52.3256 192.476 51.212 192.255 50.1731 191.824C49.1341 191.394 48.1901 190.763 47.3949 189.968C46.5997 189.173 45.9689 188.229 45.5385 187.19C45.1082 186.151 44.8867 185.037 44.8867 183.913C44.8867 182.788 45.1082 181.674 45.5385 180.636C45.9689 179.597 46.5997 178.653 47.3949 177.857C48.1901 177.062 49.1341 176.431 50.1731 176.001C51.212 175.571 52.3256 175.349 53.4502 175.349H139.933C141.058 175.349 142.171 175.571 143.21 176.001C144.249 176.431 145.193 177.062 145.989 177.857C146.784 178.653 147.415 179.597 147.845 180.636C148.275 181.674 148.497 182.788 148.497 183.913C148.497 185.037 148.275 186.151 147.845 187.19C147.415 188.229 146.784 189.173 145.989 189.968C145.193 190.763 144.249 191.394 143.21 191.824C142.171 192.255 141.058 192.476 139.933 192.476Z" fill="white"/>
<path d="M154.83 94.7533C153.705 94.7537 152.591 94.5325 151.552 94.1023C150.513 93.6721 149.569 93.0414 148.773 92.2462C147.978 91.451 147.347 90.5068 146.917 89.4677C146.487 88.4286 146.265 87.3149 146.266 86.1903V60.8333C146.29 58.5781 147.203 56.4236 148.806 54.8375C150.41 53.2514 152.574 52.3618 154.829 52.3618C157.084 52.3618 159.249 53.2514 160.852 54.8375C162.455 56.4236 163.368 58.5781 163.393 60.8333V86.1893C163.393 87.3139 163.172 88.4276 162.741 89.4667C162.311 90.5058 161.68 91.45 160.885 92.2452C160.089 93.0404 159.145 93.6711 158.106 94.1013C157.067 94.5315 155.953 94.7527 154.829 94.7523" fill="white"/>
<path d="M51.7359 94.5492C50.6112 94.5496 49.4975 94.3284 48.4584 93.8982C47.4192 93.468 46.475 92.8373 45.6797 92.0421C44.8844 91.2469 44.2536 90.3027 43.8233 89.2636C43.393 88.2245 43.1716 87.1108 43.1719 85.9862V60.6292C43.1963 58.374 44.1092 56.2195 45.7125 54.6334C47.3159 53.0473 49.4801 52.1577 51.7354 52.1577C53.9907 52.1577 56.1549 53.0473 57.7583 54.6334C59.3616 56.2195 60.2745 58.374 60.2989 60.6292V85.9862C60.2992 87.1108 60.0778 88.2245 59.6475 89.2636C59.2172 90.3027 58.5864 91.2469 57.7911 92.0421C56.9958 92.8373 56.0516 93.468 55.0124 93.8982C53.9733 94.3284 52.8596 94.5496 51.7349 94.5492" fill="white"/>
</g>
<defs>
<clipPath id="clip0_3201_214">
<rect width="280" height="285" fill="white"/>
</clipPath>
</defs>
</svg>
