<svg width="259" height="264" viewBox="0 0 259 264" fill="none" xmlns="http://www.w3.org/2000/svg">
<g clip-path="url(#clip0_3201_207)">
<path d="M258.522 99.412C258.523 119.076 252.693 138.298 241.77 154.649C230.846 170.999 215.319 183.743 197.153 191.269C178.986 198.794 158.996 200.764 139.71 196.928C120.424 193.093 102.708 183.624 88.8039 169.72C74.8993 155.816 65.4302 138.101 61.594 118.815C57.7578 99.529 59.7268 79.5386 67.252 61.3718C74.7772 43.2051 87.5206 27.6778 103.871 16.7537C120.221 5.82954 139.443 -0.000791015 159.107 8.04949e-08C185.473 6.84901e-08 210.759 10.4736 229.403 29.1169C248.046 47.7602 258.521 73.046 258.522 99.412Z" fill="#3B564D"/>
<path d="M138.618 263.19H40.0103C29.403 263.176 19.2343 258.956 11.7345 251.455C4.23469 243.953 0.0161878 233.784 0.00428089 223.177V96.4217C-0.0654286 93.6841 0.717697 90.9926 2.24523 88.7197C3.77277 86.4469 5.96915 84.7052 8.53028 83.7357C11.348 82.7311 14.4035 82.6006 17.2966 83.3612C20.1898 84.1218 22.7859 85.7382 24.7453 87.9987C32.3383 96.5327 44.7963 115.349 42.7453 145.484C42.6913 146.527 42.4279 147.548 41.971 148.488C41.514 149.427 40.8728 150.265 40.0854 150.951C39.298 151.637 38.3806 152.158 37.3878 152.483C36.395 152.807 35.347 152.929 34.3063 152.84C32.2148 152.694 30.2667 151.724 28.8893 150.143C27.5118 148.563 26.8173 146.501 26.9583 144.409C28.3743 123.709 21.5483 109.885 15.8213 102.094V223.176C15.8274 229.59 18.3776 235.739 22.9124 240.275C27.4473 244.811 33.5963 247.363 40.0103 247.371H138.618C145.034 247.365 151.186 244.815 155.723 240.279C160.26 235.742 162.812 229.591 162.818 223.176V111.505C162.812 105.089 160.26 98.938 155.723 94.4018C151.186 89.8657 145.034 87.315 138.618 87.3097H48.3183C46.2206 87.3097 44.2087 86.4764 42.7254 84.9931C41.2421 83.5098 40.4088 81.498 40.4088 79.4002C40.4088 77.3025 41.2421 75.2907 42.7254 73.8074C44.2087 72.324 46.2206 71.4907 48.3183 71.4907H138.618C149.227 71.5024 159.398 75.7218 166.9 83.2234C174.402 90.7249 178.621 100.896 178.633 111.505V223.176C178.62 233.784 174.399 243.953 166.898 251.454C159.397 258.955 149.227 263.175 138.619 263.189" fill="white"/>
<path d="M89.3123 217.704C88.2735 217.704 87.2449 217.5 86.2851 217.102C85.3253 216.705 84.4532 216.122 83.7186 215.388C82.984 214.654 82.4014 213.781 82.0039 212.822C81.6065 211.862 81.4021 210.833 81.4023 209.795V129.926C81.4257 127.843 82.2694 125.854 83.7501 124.39C85.2309 122.926 87.2294 122.104 89.3118 122.104C91.3943 122.104 93.3927 122.926 94.8735 124.39C96.3543 125.854 97.1979 127.843 97.2213 129.926V209.794C97.2216 210.832 97.0172 211.861 96.6197 212.821C96.2223 213.78 95.6396 214.653 94.9051 215.387C94.1705 216.121 93.2984 216.704 92.3386 217.101C91.3788 217.499 90.3501 217.703 89.3113 217.703" fill="white"/>
<path d="M129.245 177.785H49.3626C47.2649 177.785 45.2531 176.951 43.7698 175.468C42.2864 173.985 41.4531 171.973 41.4531 169.875C41.4531 167.778 42.2864 165.766 43.7698 164.282C45.2531 162.799 47.2649 161.966 49.3626 161.966H129.241C131.338 161.966 133.35 162.799 134.833 164.282C136.317 165.766 137.15 167.778 137.15 169.875C137.15 171.973 136.317 173.985 134.833 175.468C133.35 176.951 131.338 177.785 129.241 177.785" fill="white"/>
<path d="M143.008 87.5158C141.969 87.5162 140.94 87.3119 139.98 86.9146C139.021 86.5173 138.149 85.9347 137.414 85.2002C136.679 84.4657 136.097 83.5937 135.699 82.634C135.302 81.6742 135.097 80.6456 135.098 79.6068V56.1868C135.121 54.1045 135.965 52.1154 137.445 50.6512C138.926 49.1869 140.925 48.3657 143.007 48.3657C145.09 48.3657 147.088 49.1869 148.569 50.6512C150.05 52.1154 150.893 54.1045 150.917 56.1868V79.6068C150.917 80.6456 150.713 81.6742 150.315 82.634C149.918 83.5937 149.335 84.4657 148.6 85.2002C147.866 85.9347 146.994 86.5173 146.034 86.9146C145.074 87.3119 144.046 87.5162 143.008 87.5158Z" fill="white"/>
<path d="M47.7772 87.3278C46.7385 87.3282 45.7098 87.1239 44.75 86.7266C43.7902 86.3293 42.9181 85.7467 42.1835 85.0122C41.4489 84.2778 40.8663 83.4057 40.4688 82.446C40.0714 81.4862 39.867 80.4576 39.8672 79.4188V55.9988C39.8907 53.9165 40.7343 51.9274 42.2151 50.4632C43.6958 48.9989 45.6943 48.1777 47.7767 48.1777C49.8592 48.1777 51.8576 48.9989 53.3384 50.4632C54.8192 51.9274 55.6628 53.9165 55.6862 55.9988V79.4188C55.6865 80.4576 55.4821 81.4862 55.0846 82.446C54.6872 83.4057 54.1046 84.2778 53.37 85.0122C52.6354 85.7467 51.7633 86.3293 50.8035 86.7266C49.8437 87.1239 48.816 87.3282 47.7772 87.3278Z" fill="white"/>
</g>
<defs>
<clipPath id="clip0_3201_207">
<rect width="259" height="264" fill="white"/>
</clipPath>
</defs>
</svg>
