<svg width="221" height="225" viewBox="0 0 221 225" fill="none" xmlns="http://www.w3.org/2000/svg">
<g clip-path="url(#clip0_3201_200)">
<path d="M220.946 84.963C220.947 101.769 215.965 118.197 206.629 132.171C197.293 146.145 184.023 157.037 168.497 163.469C152.97 169.901 135.886 171.584 119.403 168.306C102.92 165.028 87.7793 156.935 75.8957 145.052C64.0121 133.169 55.9193 118.029 52.6406 101.546C49.3619 85.0633 51.0446 67.9784 57.476 52.4521C63.9074 36.9257 74.7985 23.6552 88.7721 14.3188C102.746 4.9824 119.174 -0.000593263 135.98 5.29776e-08C158.514 3.89314e-08 180.125 8.95134 196.059 24.8849C211.993 40.8185 220.945 62.4291 220.946 84.963Z" fill="#979B8A"/>
<path d="M118.472 224.936H34.1957C25.1296 224.924 16.4383 221.317 10.0283 214.906C3.61836 208.494 0.0131988 199.802 0.00367306 190.736V82.4081C-0.0560248 80.0682 0.613242 77.7677 1.91881 75.825C3.22437 73.8824 5.10163 72.3937 7.29067 71.5651C9.6995 70.7062 12.3115 70.5945 14.7849 71.2447C17.2582 71.8949 19.4776 73.2766 21.1527 75.2091C27.6427 82.5031 38.2887 98.5841 36.5387 124.339C36.4926 125.231 36.2675 126.104 35.877 126.907C35.4864 127.709 34.9383 128.425 34.2653 129.012C33.5923 129.599 32.8081 130.044 31.9595 130.321C31.1109 130.598 30.2152 130.702 29.3257 130.626C27.5381 130.501 25.8731 129.672 24.6958 128.322C23.5185 126.971 22.9251 125.208 23.0457 123.42C24.2557 105.73 18.4217 93.9141 13.5277 87.2561V190.739C13.5335 196.22 15.7131 201.476 19.5884 205.352C23.4637 209.229 28.7184 211.41 34.1997 211.417H118.476C123.958 211.411 129.214 209.23 133.09 205.354C136.967 201.477 139.147 196.221 139.153 190.739V95.2981C139.147 89.8152 136.966 84.5586 133.089 80.6819C129.211 76.8052 123.955 74.6251 118.472 74.6201H41.2937C40.3991 74.631 39.5112 74.4642 38.6816 74.1293C37.852 73.7945 37.097 73.2984 36.4606 72.6696C35.8241 72.0408 35.3188 71.292 34.9739 70.4665C34.629 69.641 34.4515 68.7552 34.4515 67.8606C34.4515 66.9659 34.629 66.0802 34.9739 65.2547C35.3188 64.4292 35.8241 63.6803 36.4606 63.0516C37.097 62.4228 37.852 61.9266 38.6816 61.5918C39.5112 61.257 40.3991 61.0902 41.2937 61.1011H118.472C127.539 61.1109 136.232 64.7172 142.644 71.1289C149.056 77.5405 152.662 86.2337 152.672 95.3011V190.741C152.661 199.808 149.054 208.501 142.643 214.912C136.231 221.324 127.539 224.93 118.472 224.941" fill="#3B564D"/>
<path d="M76.3303 186.061C75.4425 186.061 74.5634 185.887 73.7431 185.547C72.9228 185.208 72.1775 184.71 71.5497 184.082C70.9219 183.454 70.424 182.709 70.0844 181.888C69.7447 181.068 69.5701 180.189 69.5703 179.301V111.042C69.5703 109.249 70.2825 107.53 71.5503 106.262C72.818 104.994 74.5375 104.282 76.3303 104.282C78.1232 104.282 79.8426 104.994 81.1104 106.262C82.3781 107.53 83.0903 109.249 83.0903 111.042V179.302C83.0906 180.19 82.9159 181.069 82.5763 181.889C82.2367 182.71 81.7387 183.455 81.111 184.083C80.4832 184.711 79.7379 185.209 78.9176 185.548C78.0973 185.888 77.2181 186.061 76.3303 186.061Z" fill="#3B564D"/>
<path d="M110.458 151.944H42.19C41.2954 151.955 40.4075 151.788 39.5779 151.454C38.7482 151.119 37.9933 150.623 37.3568 149.994C36.7204 149.365 36.2151 148.616 35.8702 147.791C35.5253 146.965 35.3477 146.079 35.3477 145.185C35.3477 144.29 35.5253 143.404 35.8702 142.579C36.2151 141.753 36.7204 141.005 37.3568 140.376C37.9933 139.747 38.7482 139.251 39.5779 138.916C40.4075 138.581 41.2954 138.414 42.19 138.425H110.458C111.352 138.414 112.24 138.581 113.07 138.916C113.9 139.251 114.655 139.747 115.291 140.376C115.927 141.005 116.433 141.753 116.778 142.579C117.122 143.404 117.3 144.29 117.3 145.185C117.3 146.079 117.122 146.965 116.778 147.791C116.433 148.616 115.927 149.365 115.291 149.994C114.655 150.623 113.9 151.119 113.07 151.454C112.24 151.788 111.352 151.955 110.458 151.944Z" fill="#3B564D"/>
<path d="M122.221 74.7962C121.333 74.7965 120.454 74.6218 119.634 74.2822C118.813 73.9426 118.068 73.4446 117.44 72.8169C116.813 72.1891 116.315 71.4438 115.975 70.6235C115.635 69.8032 115.461 68.924 115.461 68.0362V48.0212C115.461 46.2284 116.173 44.5089 117.441 43.2412C118.709 41.9734 120.428 41.2612 122.221 41.2612C124.014 41.2612 125.733 41.9734 127.001 43.2412C128.269 44.5089 128.981 46.2284 128.981 48.0212V68.0362C128.981 68.924 128.807 69.8032 128.467 70.6235C128.127 71.4438 127.629 72.1891 127.002 72.8169C126.374 73.4446 125.628 73.9426 124.808 74.2822C123.988 74.6218 123.109 74.7965 122.221 74.7962Z" fill="#3B564D"/>
<path d="M40.8381 74.6351C39.9503 74.6354 39.0712 74.4607 38.2509 74.1211C37.4306 73.7814 36.6853 73.2835 36.0575 72.6557C35.4297 72.0279 34.9318 71.2826 34.5922 70.4623C34.2525 69.6421 34.0779 68.7629 34.0781 67.8751V47.8601C34.0781 46.0672 34.7903 44.3478 36.0581 43.0801C37.3258 41.8123 39.0453 41.1001 40.8381 41.1001C42.631 41.1001 44.3504 41.8123 45.6182 43.0801C46.8859 44.3478 47.5981 46.0672 47.5981 47.8601V67.8751C47.5984 68.7629 47.4237 69.6421 47.0841 70.4623C46.7445 71.2826 46.2465 72.0279 45.6188 72.6557C44.991 73.2835 44.2457 73.7814 43.4254 74.1211C42.6051 74.4607 41.7259 74.6354 40.8381 74.6351Z" fill="#3B564D"/>
</g>
<defs>
<clipPath id="clip0_3201_200">
<rect width="221" height="225" fill="white"/>
</clipPath>
</defs>
</svg>
