<svg width="216" height="212" viewBox="0 0 216 212" fill="none" xmlns="http://www.w3.org/2000/svg">
<g clip-path="url(#clip0_3208_102)">
<path d="M196.212 96.8189C196.467 116.222 190.963 135.265 180.396 151.54C169.828 167.814 154.672 180.59 136.843 188.251C119.015 195.912 99.3154 198.114 80.2355 194.579C61.1557 191.043 43.5527 181.929 29.6526 168.39C15.7525 154.85 6.1796 137.492 2.14459 118.512C-1.89043 99.5311 -0.206382 79.7804 6.98377 61.757C14.1739 43.7337 26.5472 28.2473 42.539 17.2562C58.5307 6.26507 77.4226 0.262989 96.8255 0.00893423C122.843 -0.332252 147.93 9.67571 166.568 27.8312C185.207 45.9868 195.87 70.8017 196.212 96.8189Z" fill="#3B564D"/>
<path d="M147.768 131.4L161.468 117.7C168.857 110.295 173.006 100.261 173.006 89.8001C173.006 79.3391 168.857 69.3053 161.468 61.9001L143.597 44.0341C136.19 36.6482 126.157 32.5005 115.697 32.5005C105.237 32.5005 95.2033 36.6482 87.7966 44.0341L45.7676 86.0591C38.3819 93.466 34.2344 103.499 34.2344 113.959C34.2344 124.419 38.3819 134.452 45.7676 141.859L63.6336 159.734C71.0367 167.127 81.0713 171.279 91.5336 171.279C101.996 171.279 112.031 167.127 119.434 159.734L134.89 144.277L202.231 211.61L215.109 198.734L147.768 131.4ZM106.562 146.854C102.574 150.834 97.1701 153.069 91.5361 153.069C85.9021 153.069 80.4983 150.834 76.5106 146.854L58.6436 128.987C54.6678 124.997 52.4354 119.594 52.4354 113.962C52.4354 108.329 54.6678 102.926 58.6436 98.9361L100.679 56.9091C104.663 52.9266 110.066 50.6893 115.7 50.6893C121.333 50.6893 126.736 52.9266 130.721 56.9091L148.59 74.7761C152.565 78.766 154.798 84.169 154.798 89.8016C154.798 95.4342 152.565 100.837 148.59 104.827L106.562 146.854Z" fill="white"/>
<path d="M138.289 186.296H8.57812V204.509H138.289V186.296Z" fill="white"/>
</g>
<defs>
<clipPath id="clip0_3208_102">
<rect width="215.109" height="211.609" fill="white"/>
</clipPath>
</defs>
</svg>
