<svg width="236" height="209" viewBox="0 0 236 209" fill="none" xmlns="http://www.w3.org/2000/svg">
<g clip-path="url(#clip0_3208_51)">
<path d="M132.436 208.625C111.805 208.897 91.5581 203.044 74.2537 191.808C56.9493 180.572 43.3654 164.457 35.2199 145.501C27.0744 126.545 24.7331 105.599 28.4921 85.3116C32.251 65.0247 41.9414 46.308 56.3378 31.5286C70.7343 16.7491 89.1901 6.57059 109.371 2.28028C129.552 -2.01003 150.553 -0.219456 169.716 7.42555C188.88 15.0706 205.346 28.2266 217.032 45.23C228.719 62.2335 235.101 82.3205 235.371 102.951C235.734 130.614 225.093 157.288 205.789 177.106C186.485 196.924 160.099 208.261 132.436 208.625Z" fill="#3B564D"/>
<path d="M0 40.1382C0.00422473 31.287 3.49321 22.7933 9.71207 16.4949C15.9309 10.1965 24.3795 6.59987 33.23 6.48317L48.152 6.28317C57.0789 6.1766 65.6835 9.61537 72.0781 15.845C78.4728 22.0747 82.1352 30.5866 82.262 39.5132L83.988 170.383C83.9454 179.28 80.5321 187.83 74.436 194.31C71.3577 197.488 67.6802 200.024 63.6161 201.772C59.5521 203.52 55.1818 204.446 50.758 204.495L35.836 204.686C31.4136 204.747 27.0226 203.935 22.9142 202.297C18.8058 200.66 15.0605 198.228 11.8925 195.142C8.72453 192.056 6.19601 188.375 4.45155 184.311C2.70709 180.247 1.78092 175.879 1.726 171.456L0.0079956 40.5952L0 40.1382ZM67.39 170.839V170.615L65.663 39.7232C65.599 35.1978 63.7418 30.8827 60.4991 27.7254C57.2565 24.5681 52.8935 22.8265 48.368 22.8832L33.454 23.0832C31.2108 23.1048 28.9942 23.5715 26.9328 24.4562C24.8713 25.3409 23.006 26.6261 21.445 28.2372C18.2996 31.488 16.5615 35.847 16.607 40.3702L18.325 171.248C18.3542 173.489 18.8246 175.702 19.7092 177.76C20.5939 179.819 21.8755 181.684 23.4808 183.247C25.0862 184.81 26.9838 186.042 29.0653 186.872C31.1468 187.702 33.3714 188.113 35.612 188.083L50.542 187.892C55.0281 187.833 59.3107 186.01 62.4632 182.818C65.6158 179.626 67.385 175.321 67.388 170.834" fill="white"/>
<path d="M104.652 93.3389C104.664 84.4889 108.155 75.9984 114.372 69.7C120.589 63.4015 129.033 59.8004 137.882 59.6739L155.684 59.4389C164.61 59.3336 173.213 62.7722 179.607 69.0005C186.001 75.2289 189.664 83.7386 189.793 92.6639L189.993 107.586V108.034C189.981 116.884 186.49 125.375 180.273 131.674C174.056 137.973 165.612 141.575 156.763 141.704L138.969 141.939C130.043 142.045 121.438 138.607 115.043 132.378C108.647 126.15 104.982 117.64 104.851 108.714L104.66 93.7749L104.652 93.3349M173.393 108.034V107.81L173.193 92.8879C173.127 88.3627 171.27 84.0483 168.028 80.89C164.787 77.7318 160.426 75.9873 155.9 76.0389L138.106 76.2709C133.618 76.3326 129.335 78.1573 126.181 81.3509C123.027 84.5445 121.256 88.8506 121.251 93.3389L121.259 93.5709L121.45 108.501C121.512 113.027 123.369 117.343 126.612 120.5C129.855 123.657 134.219 125.398 138.745 125.339L156.545 125.107C161.032 125.041 165.313 123.214 168.465 120.02C171.616 116.826 173.387 112.521 173.393 108.034Z" fill="white"/>
</g>
<defs>
<clipPath id="clip0_3208_51">
<rect width="236" height="209" fill="white"/>
</clipPath>
</defs>
</svg>
