<svg width="329" height="507" viewBox="0 0 329 507" fill="none" xmlns="http://www.w3.org/2000/svg">
<g clip-path="url(#clip0_3201_3)">
<path d="M116.85 484.08C114.48 488.47 112.24 492.99 110.18 497.61C80.7305 487.31 55.1005 468.85 35.9805 444.94C42.5605 444.94 49.1405 445.62 55.6305 447C86.5505 453.58 106.08 473.97 114.98 485.53L116.85 484.08Z" fill="white"/>
<path d="M146.75 442.16C140.13 449.3 133.98 456.99 128.38 465.19C115.94 450.89 93.5797 431.28 60.4697 424.24C47.4197 421.46 34.0697 420.98 20.9297 422.61C15.2497 412.52 10.6297 401.77 7.17969 390.51C22.0997 388.13 37.2697 387.96 52.2897 390.15C99.3397 397.04 131.13 424.89 146.75 442.16Z" fill="white"/>
<path d="M277.573 461.63C256.423 481.68 229.972 496.2 200.562 502.81C217.093 481.24 240.333 466.64 266.062 462.69C269.982 462.08 273.833 461.74 277.573 461.63Z" fill="white"/>
<path d="M313.941 410.82C309.281 420.96 303.621 430.57 297.061 439.49C286.491 438 274.881 437.77 262.521 439.68C223.981 445.6 190.091 470.65 170.321 506.72C168.371 506.8 166.401 506.83 164.431 506.83C153.671 506.83 143.141 505.79 132.961 503.79C157.371 452.24 203.031 416.15 255.271 408.1C276.951 404.77 296.841 406.64 313.941 410.82Z" fill="white"/>
<path d="M328.859 312.88V342.41C328.859 358.54 326.519 374.15 322.159 388.89C301.899 383.62 277.989 381.04 251.719 385.09C223.599 389.42 197.179 400.76 174.199 417.63V392.86C175.439 393.21 176.219 393.41 176.469 393.47L179.789 394.32L183.039 393.24C186.489 392.09 193.269 389.42 198.499 384.89C207.989 385.42 224.779 384.64 234.479 374.26C239.509 374.93 245.919 374.77 252.879 372.14C263.849 367.99 272.879 359.02 279.819 345.45C288.879 345.66 302.689 344.44 312.899 336.48C320.099 330.86 324.399 322.79 325.279 313.13C326.459 313.05 327.649 312.97 328.859 312.88Z" fill="white"/>
<path d="M150.93 385.84V413.41C130.74 394.94 98.85 373.44 55.66 367.12C37.75 364.5 19.68 364.8 1.95999 367.78C0.669991 359.5 0 351.03 0 342.41V323.55C18 327.12 40.08 333.83 61.2 346.36C92.65 365.04 127.79 378.25 150.93 385.84Z" fill="white"/>
<path d="M301.48 314.07C300.77 316.17 299.63 317.3 298.62 318.09C292.22 323.12 278.69 322.36 274.5 321.71L267.34 320.54C267.19 320.51 267.03 320.48 266.88 320.45C263 319.64 257.91 318.37 252.6 316.45C243.6 313.19 232.03 307.31 228.01 297.83C225.5 291.9 218.65 289.15 212.76 291.65C206.83 294.17 204.07 300.99 206.58 306.92C212.42 320.65 225.76 331.58 245.19 338.53C248.62 339.75 251.95 340.75 255.04 341.57C251.94 345.87 248.55 348.8 244.97 350.24C239.86 352.31 235.43 350.85 234.37 350.44C234.36 350.44 234.34 350.44 234.33 350.43C234.31 350.41 234.28 350.41 234.26 350.4L222.55 343.88L222.44 344.21C214.03 339.6 205.14 334.28 201.42 330.89C196.65 326.58 189.28 326.94 184.97 331.7C180.65 336.46 181.01 343.82 185.78 348.13C190.37 352.31 198.34 357.3 205.85 361.6C202.5 361.8 199 361.69 196.08 361.3C183.57 357.58 170.49 352.4 167.61 349.99C163.35 345.37 156.16 344.95 151.39 349.12C148.16 351.95 146.86 356.15 147.61 360.08C126.19 352.55 98.12 341.21 73.08 326.35C47.43 311.13 20.85 303.58 0 299.86V203.86C18.5 209.06 46.01 216.09 59.8 216.09C60.87 216.09 61.86 216.04 62.76 215.95C68.66 215.36 76.54 212.15 92.4 205.52C111.02 197.73 137.64 186.59 161.51 181.97C145.56 187.21 132.01 195.44 121.23 206.55C95.69 232.86 85.28 253.92 89.42 270.91C92.51 283.55 102.39 288.66 105.85 290.09C116.19 294.91 133.41 287.08 159.83 265.55C178.65 250.24 190.07 251.37 193.78 254.26L194.23 254.94L196.06 256.09C196.28 256.23 218.22 270.12 241.21 283.94C289.81 313.14 295.51 313.64 299.28 313.97C299.9 314.03 300.64 314.06 301.48 314.07Z" fill="white"/>
<path d="M328.86 208.36V289.54C316.36 290.44 305.73 291.02 301.79 290.82C292.96 288.13 248.29 261.6 209.3 236.93C203.4 231.92 181.48 217.94 145.15 247.51C125.81 263.24 116.65 266.98 113.56 267.87C112.94 267.34 112.26 266.47 111.98 265.15C111.38 262.09 111.44 250.05 137.92 222.75C184.1 175.17 283.32 211.73 284.32 212.1L286.94 213.09L328.86 208.36Z" fill="white"/>
<path d="M328.862 164.39V184.95L289.802 189.36C283.652 187.21 267.762 182.12 247.482 178.63C246.642 178.04 245.882 177.56 245.292 177.21C243.612 176.17 241.642 175.07 239.422 173.93C242.572 172.6 245.712 171.02 248.812 169.18C275.642 153.36 292.292 122.68 298.322 78.0302L299.352 70.4902C317.952 97.1302 328.872 129.51 328.872 164.39H328.862Z" fill="white"/>
<path d="M297.627 68.1L290.827 65.57C289.127 64.92 248.267 50.14 211.277 71.76C208.967 73.11 206.737 74.57 204.577 76.12C204.827 73.98 204.967 71.81 204.997 69.59C205.367 45.4 193.317 22.67 169.167 2.03L166.777 0C220.557 0.74 268.167 27.44 297.627 68.1Z" fill="white"/>
<path d="M156.049 0.180176L153.729 2.29018C153.069 2.91018 137.409 17.4802 129.699 41.0802C126.939 49.5602 124.999 59.8102 125.539 71.3902C123.229 69.7002 120.839 68.1302 118.369 66.6902C81.3794 45.0702 40.5294 59.8402 38.8094 60.4802L36.3594 61.3902C64.8694 25.9902 107.739 2.62018 156.049 0.180176Z" fill="white"/>
<path d="M107.87 174.1C99.13 177.49 90.86 180.95 83.43 184.05C74.51 187.77 63.4 192.41 60.45 192.8C53.04 193.54 25.62 187.09 0 179.64V164.39C0 128.73 11.41 95.6802 30.75 68.7202L31.33 72.9402C37.36 117.59 54.03 148.27 80.86 164.1C89.78 169.37 98.99 172.46 107.87 174.1Z" fill="white"/>
<path d="M222.548 343.88L222.438 344.21C226.767 346.58 230.958 348.77 234.258 350.4L222.548 343.88Z" fill="white"/>
<path d="M163.73 426.24H163.32C163.39 426.18 163.46 426.12 163.54 426.04C163.62 426.12 163.68 426.18 163.73 426.24Z" fill="white"/>
<path d="M163.73 426.24H163.32C163.39 426.18 163.46 426.12 163.54 426.04C163.62 426.12 163.68 426.18 163.73 426.24Z" fill="white"/>
<path d="M144.692 150.3C132.762 152.89 111.252 155.1 92.5217 143.97C74.1417 133.03 61.8917 111.53 56.0117 79.9499C67.6017 77.6899 88.3317 75.9899 106.812 86.8899C125.402 97.8399 138.132 119.14 144.692 150.3Z" fill="white"/>
<path d="M273.639 85.03C267.759 116.6 255.499 138.12 237.129 149.04C218.409 160.19 196.879 157.97 184.949 155.39C191.529 124.23 204.239 102.93 222.839 91.96C241.339 81.07 262.049 82.76 273.639 85.03Z" fill="white"/>
<path d="M181.732 69.0902C181.522 86.4502 171.392 101.25 163.792 109.96C149.372 89.7302 145.262 69.3102 151.562 49.1402C154.372 40.1702 158.782 32.8102 162.522 27.6602C175.462 41.1102 181.912 55.0002 181.732 69.0902Z" fill="white"/>
<path d="M163.73 426.24H163.32C163.39 426.18 163.46 426.12 163.54 426.04C163.62 426.12 163.68 426.18 163.73 426.24Z" fill="white"/>
</g>
<defs>
<clipPath id="clip0_3201_3">
<rect width="329" height="507" fill="white"/>
</clipPath>
</defs>
</svg>
