<svg width="365" height="549" viewBox="0 0 365 549" fill="none" xmlns="http://www.w3.org/2000/svg">
<g clip-path="url(#clip0_3201_263)">
<path d="M364 179H0V364H364V179Z" fill="white"/>
<path d="M182 364C282.516 364 364 282.516 364 182C364 81.4842 282.516 0 182 0C81.4842 0 0 81.4842 0 182C0 282.516 81.4842 364 182 364Z" fill="white"/>
<path d="M183 549C283.516 549 365 467.516 365 367C365 266.484 283.516 185 183 185C82.4842 185 1 266.484 1 367C1 467.516 82.4842 549 183 549Z" fill="white"/>
<path d="M315.828 88.3901C316.408 89.1901 316.978 89.9901 317.538 90.8001L317.768 89.1101L315.828 88.3901Z" fill="black"/>
<path d="M347.179 185.08V205.71L307.959 210.13C301.779 207.99 285.829 202.88 265.449 199.37C264.609 198.78 263.849 198.31 263.269 197.95C261.579 196.89 259.599 195.79 257.359 194.65C260.519 193.31 263.679 191.73 266.799 189.89C293.729 173.99 310.459 143.2 316.519 98.3698L317.539 90.7998C336.219 117.54 347.179 150.05 347.179 185.08Z" fill="#3B564D"/>
<path d="M315.829 88.39L309.009 85.85C307.279 85.21 266.279 70.38 229.129 92.08C226.819 93.43 224.579 94.89 222.409 96.45C222.659 94.3 222.799 92.12 222.829 89.89C223.199 65.61 211.089 42.79 186.849 22.06L184.449 20C238.439 20.77 286.239 47.57 315.829 88.39Z" fill="#3B564D"/>
<path d="M125.27 194.84C116.51 198.23 108.22 201.69 100.76 204.81C91.81 208.56 80.66 213.22 77.7 213.59C70.24 214.35 42.72 207.87 17 200.4V185.08C17 149.28 28.45 116.11 47.89 89.0298L48.46 93.2698C54.52 138.1 71.25 168.89 98.18 184.79C107.13 190.07 116.37 193.18 125.27 194.84Z" fill="#3B564D"/>
<path d="M173.668 20.21L171.348 22.34C170.688 22.95 154.968 37.58 147.228 61.28C144.448 69.78 142.508 80.08 143.038 91.69C140.718 90 138.328 88.43 135.848 86.98C98.6983 65.28 57.6983 80.11 55.9683 80.75L53.4883 81.67C82.1283 46.12 125.168 22.65 173.668 20.21Z" fill="#3B564D"/>
<path d="M347.18 229.23V310.73C334.63 311.63 323.97 312.21 320.01 312C311.14 309.31 266.3 282.67 227.14 257.91C221.21 252.87 199.2 238.84 162.73 268.53C143.32 284.33 134.11 288.08 131.02 288.96C130.39 288.43 129.71 287.57 129.44 286.23C128.82 283.18 128.88 271.08 155.48 243.67C201.84 195.9 301.46 232.6 302.45 232.98L305.09 233.97L347.18 229.23Z" fill="#3B564D"/>
<path d="M319.69 335.36C318.97 337.46 317.83 338.61 316.82 339.4C310.39 344.44 296.81 343.68 292.6 343.02C292.56 343.02 292.53 343.02 292.5 343L285.48 341.86C285.48 341.86 285.44 341.85 285.42 341.85C281.48 341.06 276.17 339.76 270.62 337.75C261.58 334.47 249.96 328.56 245.93 319.05C243.41 313.11 236.55 310.33 230.61 312.85C224.67 315.37 221.89 322.23 224.41 328.17C230.27 341.96 243.67 352.94 263.18 359.9C266.63 361.13 269.98 362.14 273.07 362.96C269.95 367.27 266.55 370.22 262.96 371.67C257.62 373.82 253 372.15 252.2 371.82L240.44 365.28L240.33 365.6C231.88 360.97 222.95 355.64 219.22 352.25C214.44 347.91 207.05 348.27 202.71 353.05C198.38 357.83 198.74 365.22 203.52 369.56C208.13 373.75 216.15 378.77 223.69 383.08C220.32 383.29 216.81 383.18 213.87 382.78H213.85C201.3 379.03 188.19 373.83 185.28 371.43C181.01 366.78 173.78 366.36 168.99 370.55C165.75 373.39 164.46 377.62 165.22 381.56C143.72 374.01 115.53 362.62 90.38 347.68C64.64 332.4 37.94 324.82 17 321.07V224.7C35.57 229.93 63.19 236.98 77.04 236.98C78.12 236.98 79.12 236.94 80.02 236.85C85.94 236.25 93.86 233.03 109.78 226.37C128.49 218.55 155.21 207.37 179.18 202.71C163.15 207.98 149.54 216.24 138.71 227.4C113.07 253.82 102.63 274.95 106.79 292.02C109.89 304.72 119.81 309.85 123.28 311.28C133.65 316.12 150.95 308.24 177.48 286.65C196.37 271.28 207.84 272.41 211.56 275.3L212.01 275.98L213.84 277.15C214.06 277.28 236.1 291.23 259.18 305.1C307.97 334.43 313.69 334.92 317.47 335.25C318.09 335.3 318.84 335.34 319.69 335.36Z" fill="#3B564D"/>
<path d="M168.53 407.4V435.07C148.27 416.55 116.26 394.96 72.88 388.62C54.91 385.99 36.75 386.29 18.97 389.28C17.67 380.97 17 372.46 17 363.8V344.94C35.11 348.52 57.32 355.23 78.45 367.77C110.03 386.52 145.3 399.78 168.53 407.4Z" fill="#3B564D"/>
<path d="M347.181 334.17V363.8C347.181 380.01 344.831 395.67 340.461 410.48C320.121 405.18 296.111 402.6 269.731 406.66C241.501 411.01 214.971 422.4 191.891 439.34V414.46C193.151 414.8 193.931 415.01 194.181 415.07L197.511 415.92L200.781 414.83C204.241 413.68 211.041 411.01 216.291 406.45C225.831 406.98 242.691 406.22 252.421 395.79C257.471 396.45 263.911 396.3 270.901 393.65C281.911 389.49 290.981 380.49 297.941 366.86C307.031 367.08 320.901 365.84 331.151 357.85C338.391 352.21 342.691 344.12 343.581 334.41C344.761 334.33 345.971 334.25 347.181 334.17Z" fill="#3B564D"/>
<path d="M295.662 483.51C274.442 503.66 247.882 518.24 218.352 524.88C234.942 503.21 258.292 488.54 284.132 484.56C288.072 483.95 291.922 483.62 295.662 483.51Z" fill="#B9C5B1"/>
<path d="M332.2 432.49C327.52 442.69 321.82 452.33 315.25 461.29C304.65 459.78 292.99 459.56 280.57 461.47C241.87 467.42 207.85 492.56 188 528.79C186.04 528.85 184.07 528.89 182.09 528.89C171.28 528.89 160.71 527.85 150.48 525.85C174.99 474.09 220.83 437.84 273.29 429.76C295.06 426.41 315.03 428.3 332.2 432.49Z" fill="#B9C5B1"/>
<path d="M164.339 463.95C157.689 471.12 151.509 478.85 145.889 487.07C133.409 472.72 110.959 453.03 77.7092 445.96C64.5992 443.17 51.2092 442.68 37.9992 444.31C32.3092 434.18 27.6592 423.39 24.1992 412.09C39.1792 409.71 54.4292 409.53 69.5092 411.74C116.729 418.64 148.649 446.59 164.339 463.95Z" fill="#B9C5B1"/>
<path d="M134.313 506.06C131.933 510.48 129.693 515.01 127.603 519.65C98.0528 509.29 72.3128 490.75 53.1328 466.75C59.7428 466.76 66.3528 467.44 72.8528 468.82C103.903 475.42 123.513 495.89 132.433 507.5L134.313 506.06Z" fill="#B9C5B1"/>
<path d="M181.399 447.98H180.969C181.049 447.91 181.129 447.84 181.219 447.77L181.399 447.98Z" fill="black"/>
<path d="M181.399 447.98H180.969C181.049 447.91 181.129 447.84 181.219 447.77L181.399 447.98Z" fill="black"/>
<path d="M162.28 170.94C150.3 173.53 128.7 175.75 109.89 164.57C91.4305 153.59 79.1305 131.98 73.2305 100.25C84.7705 97.9502 105.38 96.2402 124.06 107.15C142.83 118.12 155.66 139.55 162.28 170.94Z" fill="#B9C5B1"/>
<path d="M315.828 88.3901C316.408 89.1901 316.978 89.9901 317.538 90.8001L317.768 89.1101L315.828 88.3901Z" fill="black"/>
<path d="M291.739 105.4C285.839 137.1 273.539 158.7 255.089 169.67C236.279 180.85 214.679 178.63 202.699 176.04C209.289 144.76 222.069 123.36 240.739 112.36C259.309 101.43 280.109 103.12 291.739 105.4Z" fill="#B9C5B1"/>
<path d="M199.461 89.4001C199.251 106.83 189.091 121.69 181.441 130.43C166.981 110.11 162.851 89.61 169.181 69.36C171.991 60.36 176.411 52.9801 180.171 47.8101C193.161 61.3001 199.641 75.2601 199.461 89.4001Z" fill="#B9C5B1"/>
<path d="M181.399 447.98H180.969C181.049 447.91 181.129 447.84 181.219 447.77L181.399 447.98Z" fill="black"/>
</g>
<defs>
<clipPath id="clip0_3201_263">
<rect width="365" height="549" fill="white"/>
</clipPath>
</defs>
</svg>
