<svg width="236" height="209" viewBox="0 0 236 209" fill="none" xmlns="http://www.w3.org/2000/svg">
<g clip-path="url(#clip0_3208_55)">
<path d="M102.944 0.00855209C123.574 -0.263017 143.822 5.58925 161.127 16.8253C178.431 28.0613 192.015 44.1764 200.16 63.1327C208.306 82.089 210.647 103.035 206.888 123.322C203.129 143.609 193.439 162.326 179.042 177.105C164.646 191.885 146.19 202.063 126.009 206.354C105.828 210.644 84.8274 208.853 65.6638 201.208C46.5002 193.563 30.034 180.407 18.3475 163.404C6.66101 146.4 0.279163 126.313 0.00898235 105.683C-0.35383 78.0194 10.2872 51.3451 29.5911 31.5275C48.8951 11.7098 75.2808 0.372165 102.944 0.00855209Z" fill="#3B564D"/>
<path d="M235.379 168.496C235.374 177.347 231.885 185.84 225.667 192.139C219.448 198.437 210.999 202.034 202.149 202.151L187.227 202.351C178.3 202.457 169.695 199.018 163.3 192.789C156.906 186.559 153.243 178.047 153.117 169.121L151.391 38.2505C151.433 29.3537 154.847 20.8037 160.943 14.3235C164.021 11.1459 167.698 8.60979 171.762 6.86164C175.827 5.11348 180.197 4.18794 184.621 4.13849L199.543 3.9475C203.965 3.88683 208.356 4.69853 212.464 6.33618C216.573 7.97384 220.318 10.4053 223.486 13.4916C226.654 16.5779 229.183 20.2583 230.927 24.3226C232.672 28.3868 233.598 32.7551 233.653 37.1775L235.371 168.039L235.379 168.496ZM167.989 37.7945V38.0185L169.716 168.911C169.78 173.436 171.637 177.751 174.879 180.908C178.122 184.066 182.485 185.807 187.011 185.751L201.925 185.551C204.168 185.529 206.384 185.062 208.446 184.178C210.507 183.293 212.373 182.008 213.934 180.397C217.079 177.146 218.817 172.787 218.772 168.264L217.054 37.3855C217.024 35.1449 216.554 32.932 215.669 30.8732C214.785 28.8144 213.503 26.9501 211.898 25.3867C210.292 23.8234 208.395 22.5916 206.313 21.7618C204.232 20.932 202.007 20.5204 199.767 20.5505L184.837 20.7415C180.35 20.8007 176.068 22.6235 172.915 25.8157C169.763 29.008 167.994 33.313 167.991 37.7995" fill="white"/>
<path d="M130.728 115.295C130.716 124.145 127.225 132.635 121.008 138.934C114.791 145.232 106.347 148.833 97.4977 148.96L79.6957 149.195C70.7701 149.3 62.1671 145.862 55.773 139.633C49.379 133.405 45.7158 124.895 45.5867 115.97L45.3867 101.048V100.6C45.3989 91.7496 48.89 83.259 55.1067 76.9599C61.3234 70.6609 69.7674 67.0584 78.6167 66.9298L96.4107 66.6948C105.337 66.589 113.942 70.0271 120.337 76.2553C126.733 82.4835 130.398 90.9936 130.529 99.9198L130.72 114.859L130.728 115.299M61.9867 100.6V100.824L62.1867 115.746C62.2528 120.271 64.1101 124.586 67.3516 127.744C70.593 130.902 74.9543 132.646 79.4797 132.595L97.2737 132.363C101.762 132.301 106.045 130.476 109.199 127.283C112.353 124.089 114.123 119.783 114.129 115.295L114.121 115.063L113.93 100.133C113.868 95.607 112.011 91.291 108.768 88.1336C105.525 84.9762 101.161 83.2358 96.6347 83.2948L78.8347 83.5268C74.3479 83.5929 70.067 85.42 66.9152 88.6139C63.7634 91.8078 61.9933 96.1126 61.9867 100.6Z" fill="white"/>
</g>
<defs>
<clipPath id="clip0_3208_55">
<rect width="236" height="209" fill="white"/>
</clipPath>
</defs>
</svg>
