<svg width="193" height="211" viewBox="0 0 193 211" fill="none" xmlns="http://www.w3.org/2000/svg">
<g clip-path="url(#clip0_3201_39)">
<path d="M163.434 68.5C163.434 82.0481 159.416 95.2919 151.889 106.557C144.362 117.821 133.664 126.601 121.147 131.786C108.63 136.97 94.8573 138.327 81.5695 135.684C68.2818 133.041 56.0763 126.516 46.4964 116.936C36.9166 107.356 30.3927 95.1508 27.7497 81.8631C25.1067 68.5753 26.4634 54.8022 31.6481 42.2855C36.8329 29.7688 45.6129 19.0706 56.8778 11.5438C68.1427 4.01709 81.3865 -0.000197775 94.9346 7.30268e-09C113.102 7.3027e-09 130.525 7.21694 143.371 20.0632C156.218 32.9094 163.434 50.3327 163.434 68.5Z" fill="#979B8A"/>
<path d="M31.914 73.9539H22.114C16.2518 73.9471 10.6316 71.6155 6.48605 67.4707C2.34048 63.326 0.00793932 57.7061 0 51.8439V40.1539C0.00793986 34.2916 2.34062 28.6717 6.48641 24.5268C10.6322 20.382 16.2526 18.0506 22.115 18.0439H31.915C37.7769 18.0506 43.3968 20.3821 47.5418 24.5271C51.6868 28.6721 54.0184 34.292 54.025 40.1539V51.8439C54.0184 57.7059 51.6868 63.3258 47.5418 67.4708C43.3968 71.6158 37.7769 73.9473 31.915 73.9539M22.115 28.9439C19.1424 28.9469 16.2922 30.1287 14.1898 32.2302C12.0873 34.3317 10.9042 37.1813 10.9 40.1539V51.8439C10.9042 54.8168 12.0875 57.6665 14.1901 59.7681C16.2928 61.8696 19.1432 63.0513 22.116 63.0539H31.916C34.8882 63.051 37.7378 61.869 39.8395 59.7674C41.9411 57.6657 43.1231 54.8161 43.126 51.8439V40.1539C43.1231 37.1818 41.9411 34.3321 39.8395 32.2305C37.7378 30.1288 34.8882 28.9469 31.916 28.9439H22.115Z" fill="white"/>
<path d="M170.18 73.9539H160.38C154.518 73.9473 148.898 71.6158 144.753 67.4708C140.608 63.3258 138.276 57.7059 138.27 51.8439V40.1539C138.276 34.2927 140.607 28.6734 144.751 24.5285C148.895 20.3837 154.514 18.0516 160.376 18.0439H170.176C176.036 18.0522 181.654 20.3845 185.797 24.5295C189.94 28.6744 192.27 34.2934 192.276 40.1539V51.8439C192.27 57.7044 189.94 63.3235 185.797 67.4684C181.654 71.6133 176.036 73.9457 170.176 73.9539M160.376 28.9439C157.404 28.9479 154.555 30.1302 152.453 32.2317C150.352 34.3331 149.17 37.1821 149.166 40.1539V51.8439C149.17 54.8158 150.352 57.6648 152.453 59.7662C154.555 61.8677 157.404 63.05 160.376 63.0539H170.176C173.146 63.0486 175.993 61.8656 178.093 59.7642C180.192 57.6627 181.373 54.8145 181.376 51.8439V40.1539C181.373 37.1834 180.192 34.3352 178.093 32.2337C175.993 30.1323 173.146 28.9492 170.176 28.9439H160.376Z" fill="white"/>
<path d="M31.914 210.358H22.114C16.2528 210.351 10.6333 208.021 6.48788 203.877C2.34242 199.734 0.00926243 194.115 0 188.254V107.631C0.00793986 101.769 2.34062 96.1487 6.48641 92.0039C10.6322 87.859 16.2526 85.5276 22.115 85.521H31.915C37.7767 85.5279 43.3964 87.8596 47.5412 92.0045C51.686 96.1495 54.0174 101.769 54.024 107.631V188.251C54.015 194.111 51.6824 199.729 47.5376 203.872C43.3928 208.015 37.7743 210.345 31.914 210.351M22.114 96.417C19.1408 96.4202 16.2904 97.6027 14.188 99.705C12.0857 101.807 10.9032 104.658 10.9 107.631V188.251C10.9056 191.222 12.0895 194.07 14.1922 196.17C16.2949 198.27 19.1445 199.45 22.116 199.451H31.916C34.8868 199.449 37.7355 198.269 39.8371 196.169C41.9387 194.069 43.1215 191.222 43.126 188.251V107.631C43.1231 104.659 41.9411 101.809 39.8395 99.7075C37.7378 97.6059 34.8882 96.4239 31.916 96.421L22.114 96.417Z" fill="white"/>
<path d="M170.18 207.017H160.38C154.516 207.012 148.895 204.68 144.749 200.534C140.603 196.388 138.271 190.766 138.266 184.903V104.293C138.272 98.4312 140.604 92.8113 144.749 88.6663C148.894 84.5213 154.514 82.1897 160.376 82.1831H170.176C176.036 82.1913 181.654 84.5237 185.797 88.6686C189.94 92.8136 192.27 98.4326 192.276 104.293V184.903C192.27 190.764 189.94 196.383 185.797 200.528C181.654 204.673 176.036 207.005 170.176 207.013M160.376 93.0831C157.404 93.0871 154.555 94.2694 152.453 96.3708C150.352 98.4722 149.17 101.321 149.166 104.293V184.903C149.17 187.875 150.352 190.724 152.453 192.825C154.555 194.927 157.404 196.109 160.376 196.113H170.176C173.146 196.108 175.993 194.925 178.093 192.823C180.192 190.722 181.373 187.874 181.376 184.903V104.293C181.373 101.323 180.192 98.4743 178.093 96.3729C175.993 94.2715 173.146 93.0884 170.176 93.0831H160.376Z" fill="white"/>
<path d="M99.8358 73.9539H90.0358C84.1739 73.9473 78.5539 71.6158 74.4089 67.4708C70.2639 63.3258 67.9324 57.7059 67.9258 51.8439V40.1539C67.9324 34.292 70.2639 28.6721 74.4089 24.5271C78.5539 20.3821 84.1739 18.0506 90.0358 18.0439H99.8358C105.696 18.0522 111.314 20.3845 115.457 24.5295C119.6 28.6744 121.93 34.2934 121.936 40.1539V51.8439C121.93 57.7044 119.6 63.3235 115.457 67.4684C111.314 71.6133 105.696 73.9457 99.8358 73.9539ZM90.0358 28.9439C87.0639 28.9479 84.2149 30.1302 82.1135 32.2317C80.0121 34.3331 78.8297 37.1821 78.8258 40.1539V51.8439C78.8297 54.8158 80.0121 57.6648 82.1135 59.7662C84.2149 61.8677 87.0639 63.05 90.0358 63.0539H99.8358C102.807 63.0494 105.654 61.8666 107.754 59.765C109.854 57.6634 111.034 54.8147 111.036 51.8439V40.1539C111.034 37.1832 109.854 34.3345 107.754 32.2329C105.654 30.1313 102.807 28.9484 99.8358 28.9439H90.0358Z" fill="white"/>
<path d="M99.8358 210.358H90.0358C84.1739 210.351 78.5539 208.02 74.4089 203.875C70.2639 199.73 67.9324 194.11 67.9258 188.248V104.293C67.9324 98.4312 70.2639 92.8113 74.4089 88.6663C78.5539 84.5213 84.1739 82.1897 90.0358 82.1831H99.8358C105.696 82.1913 111.314 84.5237 115.457 88.6686C119.6 92.8136 121.93 98.4326 121.936 104.293V188.248C121.93 194.109 119.6 199.728 115.457 203.873C111.314 208.017 105.696 210.35 99.8358 210.358ZM90.0368 93.0831C87.0649 93.0871 84.2159 94.2694 82.1145 96.3708C80.0131 98.4722 78.8307 101.321 78.8268 104.293V188.248C78.8297 191.22 80.0117 194.07 82.1133 196.172C84.215 198.273 87.0646 199.455 90.0368 199.458H99.8368C102.808 199.455 105.656 198.272 107.756 196.17C109.856 194.069 111.036 191.219 111.037 188.248V104.293C111.035 101.322 109.855 98.4736 107.755 96.372C105.655 94.2704 102.808 93.0876 99.8368 93.0831H90.0368Z" fill="white"/>
</g>
<defs>
<clipPath id="clip0_3201_39">
<rect width="193" height="211" fill="white"/>
</clipPath>
</defs>
</svg>
