<svg width="171" height="187" viewBox="0 0 171 187" fill="none" xmlns="http://www.w3.org/2000/svg">
<g clip-path="url(#clip0_3201_23)">
<path d="M144.569 60.592C144.57 72.5768 141.016 84.2926 134.358 94.2579C127.7 104.223 118.236 111.99 107.164 116.577C96.0916 121.164 83.9077 122.364 72.1532 120.026C60.3986 117.688 49.6013 111.917 41.1268 103.442C32.6523 94.9676 26.8811 84.1703 24.5431 72.4158C22.2051 60.6612 23.4054 48.4773 27.992 37.4049C32.5787 26.3325 40.3458 16.8689 50.311 10.2108C60.2763 3.55281 71.9921 -0.000593268 83.9769 7.42944e-08C100.047 0.000265283 115.459 6.38413 126.822 17.7473C138.185 29.1104 144.569 44.5221 144.569 60.592Z" fill="#979B8A"/>
<path d="M28.23 65.4179H19.563C14.3771 65.4124 9.4052 63.3502 5.73777 59.6837C2.07035 56.0172 0.00688185 51.0458 0 45.8599V35.5199C0.00688185 30.3341 2.07035 25.3626 5.73777 21.6962C9.4052 18.0297 14.3771 15.9675 19.563 15.9619H28.23C33.4153 15.9677 38.3866 18.0302 42.0532 21.6968C45.7197 25.3633 47.7822 30.3346 47.788 35.5199V45.8599C47.7822 51.0452 45.7197 56.0165 42.0532 59.6831C38.3866 63.3496 33.4153 65.4121 28.23 65.4179ZM19.563 25.6039C16.9334 25.6063 14.4121 26.6516 12.5522 28.5106C10.6923 30.3695 9.64571 32.8903 9.642 35.5199V45.8599C9.64571 48.4895 10.6923 51.0103 12.5522 52.8693C14.4121 54.7282 16.9334 55.7735 19.563 55.7759H28.23C30.8591 55.7733 33.3797 54.7277 35.2387 52.8687C37.0978 51.0096 38.1434 48.489 38.146 45.8599V35.5199C38.1434 32.8908 37.0978 30.3702 35.2387 28.5112C33.3797 26.6521 30.8591 25.6066 28.23 25.6039H19.563Z" fill="#3B564D"/>
<path d="M150.535 65.4179H141.863C136.677 65.4121 131.706 63.3496 128.04 59.6831C124.373 56.0165 122.311 51.0452 122.305 45.8599V35.5199C122.311 30.3346 124.373 25.3633 128.04 21.6968C131.706 18.0302 136.677 15.9677 141.863 15.9619H150.535C155.72 15.968 160.69 18.0307 164.356 21.6973C168.022 25.364 170.083 30.3351 170.088 35.5199V45.8599C170.083 51.0447 168.022 56.0158 164.356 59.6825C160.69 63.3491 155.72 65.4118 150.535 65.4179ZM141.863 25.6039C139.234 25.6074 136.714 26.6532 134.855 28.512C132.996 30.3709 131.95 32.8911 131.947 35.5199V45.8599C131.95 48.4887 132.996 51.0089 134.855 52.8678C136.714 54.7267 139.234 55.7725 141.863 55.7759H150.535C153.163 55.7725 155.683 54.7265 157.541 52.8675C159.399 51.0086 160.444 48.4884 160.447 45.8599V35.5199C160.444 32.8914 159.399 30.3713 157.541 28.5123C155.683 26.6533 153.163 25.6074 150.535 25.6039H141.863Z" fill="#3B564D"/>
<path d="M28.23 186.076H19.563C14.3779 186.071 9.40659 184.009 5.73925 180.344C2.0719 176.678 0.00794054 171.708 0 166.523V95.2099C0.00688185 90.024 2.07035 85.0526 5.73777 81.3861C9.4052 77.7196 14.3771 75.6574 19.563 75.6519H28.23C33.4153 75.6577 38.3866 77.7201 42.0532 81.3867C45.7197 85.0533 47.7822 90.0245 47.788 95.2099V166.524C47.7809 171.708 45.7178 176.678 42.0513 180.343C38.3849 184.009 33.4144 186.07 28.23 186.076ZM19.563 85.2939C16.9334 85.2962 14.4121 86.3416 12.5522 88.2005C10.6923 90.0595 9.64571 92.5802 9.642 95.2099V166.524C9.64597 169.153 10.6928 171.673 12.5528 173.531C14.4128 175.389 16.9339 176.434 19.563 176.435H28.23C30.8585 176.433 33.379 175.389 35.2382 173.531C37.0973 171.672 38.1431 169.152 38.146 166.524V95.2099C38.1434 92.5808 37.0978 90.0601 35.2387 88.2011C33.3797 86.3421 30.8591 85.2965 28.23 85.2939H19.563Z" fill="#3B564D"/>
<path d="M150.535 183.117H141.863C136.678 183.111 131.708 181.049 128.041 177.384C124.375 173.718 122.312 168.748 122.305 163.564V92.2548C122.311 87.0695 124.373 82.0982 128.04 78.4316C131.706 74.765 136.677 72.7026 141.863 72.6968H150.535C155.72 72.7029 160.69 74.7656 164.356 78.4322C168.022 82.0989 170.083 87.07 170.088 92.2548V163.564C170.082 168.748 168.02 173.718 164.354 177.383C160.688 181.049 155.719 183.111 150.535 183.117ZM141.863 82.3388C139.234 82.3422 136.714 83.388 134.855 85.2469C132.996 87.1058 131.95 89.6259 131.947 92.2548V163.564C131.95 166.193 132.996 168.713 134.855 170.572C136.714 172.431 139.234 173.476 141.863 173.48H150.535C153.163 173.476 155.683 172.43 157.541 170.571C159.399 168.712 160.444 166.192 160.447 163.564V92.2548C160.444 89.6263 159.399 87.1061 157.541 85.2472C155.683 83.3882 153.163 82.3422 150.535 82.3388H141.863Z" fill="#3B564D"/>
<path d="M88.3119 65.4179H79.6439C74.4586 65.4121 69.4873 63.3496 65.8208 59.6831C62.1542 56.0165 60.0918 51.0452 60.0859 45.8599V35.5199C60.0918 30.3346 62.1542 25.3633 65.8208 21.6968C69.4873 18.0302 74.4586 15.9677 79.6439 15.9619H88.3119C93.4967 15.968 98.4673 18.0307 102.133 21.6973C105.799 25.364 107.86 30.3351 107.865 35.5199V45.8599C107.86 51.0447 105.799 56.0158 102.133 59.6825C98.4673 63.3491 93.4967 65.4118 88.3119 65.4179ZM79.6439 25.6039C77.0151 25.6074 74.4949 26.6532 72.6361 28.512C70.7772 30.3709 69.7314 32.8911 69.7279 35.5199V45.8599C69.7314 48.4887 70.7772 51.0089 72.6361 52.8678C74.4949 54.7267 77.0151 55.7725 79.6439 55.7759H88.3119C90.9403 55.7727 93.46 54.7268 95.318 52.8677C97.1759 51.0086 98.2203 48.4883 98.2219 45.8599V35.5199C98.2203 32.8912 97.1757 30.3706 95.3173 28.5114C93.4589 26.6523 90.9386 25.6066 88.3099 25.6039H79.6439Z" fill="#3B564D"/>
<path d="M88.3119 186.077H79.6439C74.4583 186.071 69.4867 184.008 65.8201 180.341C62.1534 176.674 60.0912 171.702 60.0859 166.517V92.2548C60.0918 87.0695 62.1542 82.0982 65.8208 78.4316C69.4873 74.765 74.4586 72.7026 79.6439 72.6968H88.3119C93.4967 72.7029 98.4673 74.7656 102.133 78.4322C105.799 82.0989 107.86 87.07 107.865 92.2548V166.517C107.861 171.702 105.8 176.674 102.134 180.341C98.468 184.008 93.4971 186.071 88.3119 186.077ZM79.6439 82.3388C77.0151 82.3422 74.4949 83.388 72.6361 85.2469C70.7772 87.1058 69.7314 89.6259 69.7279 92.2548V166.517C69.7306 169.146 70.7762 171.666 72.6352 173.526C74.4942 175.385 77.0149 176.43 79.6439 176.433H88.3119C90.9405 176.43 93.4607 175.385 95.3189 173.525C97.177 171.666 98.2211 169.145 98.2219 166.517V92.2548C98.2203 89.6261 97.1757 87.1054 95.3173 85.2463C93.4589 83.3871 90.9386 82.3414 88.3099 82.3388H79.6439Z" fill="#3B564D"/>
</g>
<defs>
<clipPath id="clip0_3201_23">
<rect width="171" height="187" fill="white"/>
</clipPath>
</defs>
</svg>
