<svg width="211" height="238" viewBox="0 0 211 238" fill="none" xmlns="http://www.w3.org/2000/svg">
<g clip-path="url(#clip0_3201_47)">
<path d="M210.475 103.856C210.749 124.67 204.845 145.097 193.509 162.555C182.174 180.013 165.916 193.717 146.792 201.935C127.667 210.153 106.535 212.515 86.0686 208.723C65.6017 204.931 46.719 195.154 31.8084 180.63C16.8978 166.106 6.62896 147.487 2.30055 127.127C-2.02785 106.766 -0.221447 85.5798 7.49133 66.2462C15.2041 46.9126 28.4768 30.3004 45.6311 18.5102C62.7853 6.7201 83.0505 0.281647 103.864 0.00907455C131.772 -0.357208 158.683 10.3779 178.677 29.853C198.67 49.328 210.108 75.9477 210.475 103.856Z" fill="#3B564D"/>
<path d="M40.4865 237.468C31.5571 237.463 22.9887 233.943 16.6348 227.669C10.2809 221.395 6.65246 212.872 6.53445 203.944L6.33445 188.89C6.22708 179.884 9.69631 171.203 15.9811 164.752C22.2658 158.301 30.8529 154.606 39.8585 154.478L171.888 152.736C180.864 152.779 189.49 156.223 196.027 162.373C199.233 165.479 201.791 169.188 203.554 173.288C205.317 177.388 206.251 181.797 206.3 186.26L206.493 201.314C206.555 205.775 205.736 210.205 204.084 214.35C202.431 218.495 199.978 222.274 196.865 225.47C193.751 228.666 190.038 231.217 185.937 232.976C181.837 234.736 177.43 235.671 172.968 235.726L40.9465 237.46L40.4865 237.468ZM172.34 169.481H172.114L40.0675 171.223C35.5011 171.286 31.1467 173.16 27.9606 176.431C24.7744 179.703 23.017 184.105 23.0745 188.672L23.2745 203.718C23.2964 205.981 23.7673 208.217 24.66 210.297C25.5526 212.376 26.8491 214.258 28.4745 215.833C31.7542 219.006 36.152 220.76 40.7155 220.714L172.754 218.981C175.015 218.952 177.248 218.478 179.325 217.585C181.403 216.693 183.284 215.4 184.862 213.78C186.439 212.161 187.682 210.246 188.52 208.146C189.357 206.046 189.773 203.802 189.742 201.541L189.549 186.478C189.491 181.95 187.652 177.628 184.43 174.446C181.209 171.264 176.863 169.48 172.335 169.478" fill="white"/>
<path d="M97.6143 131.881C88.6865 131.869 80.1215 128.346 73.768 122.074C67.4144 115.802 63.7819 107.283 63.6543 98.3562L63.4203 80.3962C63.3143 71.3922 66.7829 62.7135 73.0657 56.263C79.3484 49.8124 87.9327 46.1164 96.9363 45.9852L111.99 45.7852H112.443C121.372 45.7973 129.937 49.3191 136.292 55.5907C142.647 61.8622 146.281 70.3807 146.411 79.3082L146.643 97.2602C146.75 106.265 143.282 114.945 136.999 121.397C130.717 127.849 122.132 131.547 113.127 131.68L98.0563 131.873L97.6123 131.881M112.443 62.5292H112.217L97.1633 62.7292C92.5968 62.794 88.2424 64.6675 85.0555 67.9386C81.8685 71.2098 80.1091 75.6115 80.1633 80.1782L80.3973 98.1292C80.459 102.657 82.2994 106.978 85.5209 110.16C88.7424 113.342 93.0863 115.129 97.6143 115.135L97.8483 115.127L112.911 114.934C117.477 114.872 121.832 112.999 125.017 109.727C128.203 106.455 129.959 102.052 129.899 97.4862L129.665 79.5262C129.6 74.9991 127.758 70.679 124.536 67.4985C121.314 64.3179 116.97 62.532 112.442 62.5262" fill="white"/>
</g>
<defs>
<clipPath id="clip0_3201_47">
<rect width="211" height="238" fill="white"/>
</clipPath>
</defs>
</svg>
