<svg width="353" height="209" viewBox="0 0 353 209" fill="none" xmlns="http://www.w3.org/2000/svg">
<g clip-path="url(#clip0_3201_56)">
<path d="M352.311 120.907C352.312 138.289 347.159 155.28 337.503 169.732C327.847 184.185 314.122 195.45 298.064 202.102C282.006 208.754 264.336 210.495 247.288 207.104C230.241 203.713 214.582 195.344 202.291 183.053C190 170.763 181.63 155.104 178.239 138.057C174.849 121.009 176.589 103.339 183.241 87.2811C189.892 71.2229 201.157 57.4978 215.609 47.8416C230.061 38.1853 247.052 33.0316 264.434 33.0322C287.74 33.0322 310.092 42.2904 326.572 58.7701C343.052 75.2498 352.31 97.6011 352.311 120.907Z" fill="#979B8A"/>
<path d="M299.074 170.534H211.91C202.533 170.524 193.543 166.795 186.913 160.163C180.283 153.532 176.555 144.542 176.547 135.165V23.121C176.484 20.7027 177.176 18.3248 178.525 16.3168C179.874 14.3089 181.814 12.7702 184.077 11.914C186.568 11.0248 189.269 10.908 191.828 11.5791C194.386 12.2501 196.683 13.6776 198.417 15.675C205.129 23.219 216.14 39.844 214.329 66.489C214.275 67.4115 214.038 68.3141 213.634 69.1447C213.229 69.9754 212.663 70.7175 211.97 71.3283C211.276 71.9391 210.469 72.4064 209.594 72.7032C208.718 73.0001 207.793 73.1206 206.871 73.0577C205.949 72.9949 205.049 72.75 204.222 72.3372C203.396 71.9244 202.659 71.3518 202.055 70.6526C201.451 69.9534 200.991 69.1414 200.702 68.2635C200.414 67.3856 200.302 66.4593 200.374 65.538C201.625 47.238 195.592 35.021 190.53 28.138V135.165C190.535 140.834 192.789 146.27 196.797 150.28C200.806 154.289 206.241 156.545 211.91 156.552H299.074C304.744 156.546 310.181 154.291 314.19 150.281C318.2 146.272 320.455 140.835 320.461 135.165V36.453C320.455 30.7826 318.2 25.3461 314.19 21.3365C310.181 17.327 304.744 15.0718 299.074 15.066H219.251C217.397 15.066 215.618 14.3294 214.307 13.0182C212.996 11.7071 212.259 9.92877 212.259 8.07451C212.259 6.22025 212.996 4.44193 214.307 3.13077C215.618 1.81961 217.397 1.08301 219.251 1.08301H299.074C308.451 1.09359 317.441 4.82333 324.072 11.454C330.703 18.0846 334.433 27.0747 334.444 36.452V135.163C334.433 144.54 330.703 153.53 324.072 160.161C317.441 166.792 308.451 170.521 299.074 170.532" fill="#3B564D"/>
<path d="M122.531 169.45H35.3668C25.9899 169.44 16.9999 165.711 10.37 159.079C3.74014 152.448 0.0119668 143.458 0.00376056 134.081V22.037C-0.0576687 19.6179 0.634799 17.2397 1.98522 15.2317C3.33564 13.2237 5.27716 11.6854 7.54076 10.83C10.0309 9.94245 12.7309 9.8266 15.2879 10.4976C17.845 11.1685 20.1402 12.5951 21.8738 14.591C28.5858 22.135 39.5978 38.767 37.7868 65.411C37.7358 66.3317 37.5008 67.2328 37.0957 68.0611C36.6906 68.8894 36.1236 69.6282 35.4281 70.2336C34.7327 70.8391 33.923 71.2991 33.0468 71.5863C32.1706 71.8735 31.2457 71.9822 30.3268 71.906C29.411 71.844 28.5164 71.6022 27.6941 71.1945C26.8718 70.7867 26.1379 70.2209 25.5343 69.5295C24.9307 68.838 24.4692 68.0344 24.1763 67.1646C23.8833 66.2948 23.7645 65.3757 23.8268 64.46C25.0778 46.16 19.0448 33.936 13.9828 27.049V134.081C13.9881 139.75 16.2421 145.186 20.2502 149.196C24.2584 153.205 29.6934 155.461 35.3628 155.468H122.527C128.197 155.462 133.634 153.207 137.643 149.197C141.653 145.188 143.908 139.751 143.914 134.081V35.369C143.908 29.6986 141.653 24.2621 137.643 20.2525C133.634 16.243 128.197 13.9878 122.527 13.982H42.7078C40.8536 13.982 39.0754 13.2455 37.7644 11.9344C36.4533 10.6233 35.7168 8.84513 35.7168 6.991C35.7168 5.13687 36.4533 3.35868 37.7644 2.04762C39.0754 0.73655 40.8536 0 42.7078 0H122.531C131.908 0.0119068 140.897 3.74206 147.528 10.3724C154.158 17.0028 157.889 25.9921 157.901 35.369V134.08C157.89 143.457 154.16 152.447 147.529 159.078C140.898 165.709 131.908 169.439 122.531 169.45Z" fill="#3B564D"/>
<path d="M77.0392 141.353L40.3332 95.763C39.1822 94.3165 38.6509 92.4732 38.8554 90.636C39.06 88.7989 39.9836 87.1175 41.4245 85.9595C42.8653 84.8016 44.7061 84.2613 46.5442 84.4568C48.3823 84.6524 50.0682 85.5678 51.2332 87.003L75.5082 117.156L113.884 54.809C114.365 54.0272 114.995 53.3477 115.738 52.8093C116.481 52.2709 117.323 51.8842 118.216 51.6712C119.109 51.4583 120.035 51.4232 120.941 51.5681C121.847 51.7129 122.716 52.0349 123.498 52.5155C124.279 52.9962 124.959 53.6261 125.497 54.3693C126.036 55.1126 126.422 55.9546 126.635 56.8473C126.848 57.74 126.883 58.6659 126.739 59.5721C126.594 60.4784 126.272 61.3472 125.791 62.129L77.0392 141.353Z" fill="#3B564D"/>
</g>
<defs>
<clipPath id="clip0_3201_56">
<rect width="353" height="209" fill="white"/>
</clipPath>
</defs>
</svg>
