<svg width="324" height="192" viewBox="0 0 324 192" fill="none" xmlns="http://www.w3.org/2000/svg">
<g clip-path="url(#clip0_3201_61)">
<path d="M323.659 111.079C323.66 127.047 318.926 142.656 310.056 155.934C301.185 169.211 288.576 179.56 273.824 185.671C259.072 191.782 242.839 193.382 227.177 190.267C211.516 187.152 197.13 179.463 185.839 168.172C174.548 156.881 166.858 142.496 163.743 126.835C160.628 111.174 162.226 94.9403 168.337 80.1878C174.448 65.4354 184.796 52.8263 198.073 43.9551C211.35 35.084 226.959 30.3492 242.927 30.3496C264.338 30.3496 284.872 38.8549 300.012 53.9945C315.152 69.134 323.658 89.6678 323.658 111.079" fill="#3B564D"/>
<path d="M274.755 156.668H194.679C186.065 156.658 177.806 153.231 171.716 147.139C165.625 141.048 162.2 132.789 162.191 124.175V21.2416C162.133 19.0191 162.768 16.8336 164.007 14.988C165.247 13.1424 167.03 11.7283 169.109 10.9416C171.398 10.1254 173.88 10.019 176.23 10.6363C178.581 11.2536 180.69 12.566 182.282 14.4016C188.448 21.3316 198.564 36.6016 196.901 61.0826C196.849 61.928 196.63 62.7548 196.257 63.5152C195.883 64.2757 195.364 64.9548 194.727 65.5136C194.09 66.0724 193.35 66.4998 192.547 66.7712C191.745 67.0426 190.897 67.1527 190.051 67.0951C189.206 67.0375 188.381 66.8133 187.623 66.4355C186.865 66.0577 186.189 65.5337 185.634 64.8937C185.079 64.2537 184.656 63.5103 184.39 62.7062C184.123 61.9021 184.018 61.0533 184.081 60.2086C185.231 43.3996 179.688 32.1726 175.037 25.8466V124.174C175.042 129.382 177.113 134.376 180.795 138.059C184.477 141.743 189.471 143.815 194.679 143.822H274.755C279.965 143.816 284.959 141.745 288.643 138.061C292.326 134.377 294.398 129.383 294.403 124.174V33.4896C294.398 28.2803 292.326 23.2858 288.643 19.6022C284.959 15.9187 279.965 13.8469 274.755 13.8416H201.423C199.72 13.8416 198.086 13.1649 196.881 11.9604C195.677 10.7558 195 9.12209 195 7.41861C195 5.71512 195.677 4.08141 196.881 2.87686C198.086 1.67231 199.72 0.995605 201.423 0.995605H274.755C283.37 1.0054 291.629 4.43187 297.721 10.5233C303.812 16.6148 307.239 24.8738 307.249 33.4886V124.173C307.239 132.787 303.812 141.046 297.721 147.138C291.629 153.229 283.37 156.656 274.755 156.666" fill="white"/>
<path d="M112.567 155.672H32.4915C23.8773 155.662 15.6188 152.235 9.52806 146.143C3.43735 140.052 0.0119618 131.793 0.00349219 123.179V20.2455C-0.0532436 18.0233 0.582543 15.8385 1.82277 13.9938C3.06299 12.149 4.84626 10.7357 6.92549 9.9495C9.21296 9.13325 11.6934 9.02595 14.0428 9.64162C16.3923 10.2573 18.5013 11.5673 20.0945 13.4005C26.2605 20.3305 36.3765 35.6105 34.7135 60.0885C34.6668 60.9343 34.451 61.7622 34.079 62.5232C33.7069 63.2842 33.186 63.963 32.5471 64.5192C31.9082 65.0755 31.1643 65.4981 30.3594 65.7619C29.5544 66.0258 28.7047 66.1256 27.8605 66.0555C26.1623 65.9393 24.5798 65.1535 23.4609 63.8709C22.342 62.5882 21.7782 60.9137 21.8935 59.2155C23.0435 42.4065 17.5005 31.1735 12.8495 24.8465V123.174C12.8543 128.382 14.925 133.376 18.6074 137.059C22.2898 140.743 27.283 142.815 32.4915 142.822H112.567C117.777 142.816 122.771 140.744 126.455 137.061C130.138 133.377 132.21 128.383 132.215 123.174V32.4935C132.21 27.2842 130.138 22.2897 126.455 18.6061C122.771 14.9225 117.777 12.8508 112.567 12.8455H39.2355C38.3853 12.8561 37.5415 12.6978 36.753 12.3798C35.9645 12.0618 35.247 11.5904 34.642 10.993C34.0371 10.3956 33.5568 9.68396 33.229 8.89947C32.9012 8.11499 32.7323 7.27322 32.7323 6.423C32.7323 5.57278 32.9012 4.73101 33.229 3.94653C33.5568 3.16204 34.0371 2.45044 34.642 1.85301C35.247 1.25557 35.9645 0.784181 36.753 0.46618C37.5415 0.148178 38.3853 -0.0101085 39.2355 0.000500038H112.567C121.182 0.0113486 129.44 3.43816 135.532 9.5294C141.623 15.6206 145.05 23.8791 145.061 32.4935V123.178C145.051 131.792 141.625 140.051 135.533 146.143C129.441 152.234 121.182 155.662 112.567 155.672Z" fill="white"/>
<path d="M70.7747 129.86L37.0547 87.9774C35.987 86.6496 35.4904 84.952 35.6743 83.2581C35.8582 81.5642 36.7074 80.0127 38.0352 78.9449C39.363 77.8772 41.0606 77.3806 42.7545 77.5645C44.4485 77.7484 46 78.5976 47.0677 79.9254L69.3677 107.625L104.625 50.3524C105.066 49.6334 105.644 49.0084 106.327 48.5131C107.01 48.0178 107.784 47.662 108.604 47.4659C109.425 47.2698 110.276 47.2373 111.109 47.3703C111.942 47.5033 112.741 47.7992 113.459 48.241C114.178 48.6829 114.802 49.262 115.297 49.9453C115.792 50.6286 116.147 51.4027 116.342 52.2233C116.538 53.0439 116.569 53.895 116.436 54.7279C116.302 55.5608 116.005 56.3592 115.563 57.0774L70.7747 129.86Z" fill="white"/>
</g>
<defs>
<clipPath id="clip0_3201_61">
<rect width="324" height="192" fill="white"/>
</clipPath>
</defs>
</svg>
