<svg width="157" height="184" viewBox="0 0 157 184" fill="none" xmlns="http://www.w3.org/2000/svg">
<g clip-path="url(#clip0_3201_71)">
<path d="M63.5199 120.4C31.1769 120.4 4.96094 93.445 4.96094 60.2C4.96094 26.955 31.1769 0 63.5199 0C95.8629 0 122.079 26.955 122.079 60.2C122.079 93.445 95.8629 120.4 63.5199 120.4Z" fill="#979B8A"/>
<path d="M47.0997 183.471C39.2747 183.434 31.5742 181.508 24.6527 177.858C11.4557 171.076 3.46072 160.64 0.889717 146.851C-8.47528 96.629 59.1127 18.048 61.9927 14.729C62.3923 14.2609 62.8823 13.8783 63.4334 13.6042C63.9844 13.3301 64.5852 13.1701 65.1996 13.1339C65.814 13.0977 66.4294 13.1859 67.0088 13.3933C67.5883 13.6008 68.1199 13.9231 68.5717 14.341C69.4984 15.2 70.0553 16.3854 70.1249 17.6471C70.1945 18.9088 69.7714 20.1483 68.9447 21.104C68.2737 21.885 1.53772 99.459 10.0447 145.055C12.0667 155.908 18.2167 163.834 28.8257 169.29C39.2987 174.678 49.9257 175.358 61.2897 171.345C101.67 157.13 136.822 87.439 146.629 66.418C147.429 64.7194 147.605 62.7935 147.129 60.9776C146.652 59.1617 145.551 57.5713 144.02 56.485L121.2 40.402C120.37 39.8137 119.431 39.3997 118.437 39.1848C117.443 38.97 116.416 38.9588 115.418 39.152C114.412 39.3482 113.457 39.7439 112.607 40.3156C111.757 40.8874 111.03 41.6237 110.47 42.481L61.5267 116.332C61.1924 116.849 60.7573 117.293 60.2475 117.637C59.7377 117.982 59.1637 118.221 58.5597 118.339C57.9557 118.457 57.3342 118.452 56.7321 118.324C56.1301 118.196 55.5599 117.949 55.0557 117.596C54.0283 116.862 53.3259 115.758 53.0964 114.516C52.867 113.274 53.1284 111.992 53.8257 110.939L102.764 37.086C104 35.1918 105.604 33.565 107.481 32.3022C109.357 31.0393 111.468 30.166 113.689 29.734C115.894 29.304 118.165 29.3276 120.361 29.8035C122.557 30.2794 124.634 31.1976 126.464 32.502L149.284 48.586C152.667 50.9917 155.096 54.511 156.145 58.5276C157.195 62.5441 156.798 66.8018 155.024 70.555C141.941 98.586 106.915 165.41 64.2997 180.406C58.7828 182.4 52.9658 183.436 47.0997 183.471Z" fill="#3B564D"/>
</g>
<defs>
<clipPath id="clip0_3201_71">
<rect width="157" height="184" fill="white"/>
</clipPath>
</defs>
</svg>
