<svg width="204" height="239" viewBox="0 0 204 239" fill="none" xmlns="http://www.w3.org/2000/svg">
<g clip-path="url(#clip0_3201_77)">
<path d="M82.5952 156.562C40.5392 156.562 6.44922 121.512 6.44922 78.284C6.44922 35.056 40.5392 0 82.5952 0C124.651 0 158.741 35.05 158.741 78.284C158.741 121.518 124.651 156.562 82.5952 156.562Z" fill="#979B8A"/>
<path d="M61.2478 238.569C51.0727 238.521 41.0598 236.016 32.0598 231.269C14.8998 222.452 4.49983 208.881 1.15683 190.951C-11.0202 125.646 76.8658 23.4661 80.6098 19.1501C81.1298 18.5419 81.7672 18.045 82.4838 17.6891C83.2004 17.3332 83.9816 17.1257 84.7804 17.079C85.5792 17.0323 86.3792 17.1474 87.1324 17.4174C87.8856 17.6873 88.5766 18.1066 89.1638 18.6501C90.3688 19.7672 91.0929 21.3085 91.1834 22.9491C91.2738 24.5897 90.7237 26.2013 89.6488 27.4441C88.7768 28.4551 1.99983 129.326 13.0548 188.616C15.6838 202.726 23.6808 213.035 37.4758 220.126C51.0948 227.132 64.9078 228.017 79.6898 222.798C132.2 204.316 177.905 113.695 190.658 86.3611C191.699 84.1523 191.929 81.6477 191.309 79.286C190.688 76.9244 189.257 74.8563 187.265 73.4441L157.592 52.5321C156.514 51.7673 155.291 51.229 153.999 50.9497C152.707 50.6704 151.372 50.6559 150.074 50.9071C148.767 51.1621 147.524 51.6765 146.419 52.4198C145.314 53.1632 144.369 54.1205 143.64 55.2351L79.9998 151.268C79.5651 151.94 78.9994 152.518 78.3365 152.966C77.6736 153.414 76.9271 153.725 76.1416 153.878C75.3562 154.032 74.5478 154.025 73.7649 153.859C72.9819 153.693 72.2405 153.371 71.5848 152.912C70.2486 151.958 69.335 150.522 69.0365 148.907C68.7381 147.292 69.078 145.624 69.9848 144.255L133.626 48.2261C135.234 45.763 137.32 43.6477 139.76 42.0056C142.2 40.3634 144.946 39.2278 147.833 38.6661C150.701 38.107 153.653 38.1378 156.509 38.7568C159.365 39.3757 162.065 40.5697 164.445 42.2661L194.118 63.1791C198.517 66.3072 201.676 70.8835 203.041 76.1064C204.405 81.3292 203.889 86.8657 201.582 91.7461C184.571 128.198 139.025 215.088 83.6098 234.588C76.4375 237.18 68.8751 238.528 61.2488 238.574" fill="white"/>
</g>
<defs>
<clipPath id="clip0_3201_77">
<rect width="204" height="239" fill="white"/>
</clipPath>
</defs>
</svg>
