<svg width="166" height="195" viewBox="0 0 166 195" fill="none" xmlns="http://www.w3.org/2000/svg">
<g clip-path="url(#clip0_3201_74)">
<path d="M67.2181 127.411C32.9921 127.411 5.25 98.887 5.25 63.711C5.25 28.535 32.9921 0 67.2181 0C101.444 0 129.185 28.524 129.185 63.708C129.185 98.892 101.443 127.408 67.2171 127.408" fill="#3B564D"/>
<path d="M49.8453 194.15C41.5646 194.111 33.4158 192.073 26.0913 188.21C12.1233 181.035 3.66329 169.991 0.941294 155.4C-8.96771 102.25 62.5553 19.0993 65.6003 15.5863C66.0231 15.0908 66.5416 14.686 67.1247 14.3959C67.7079 14.1058 68.3436 13.9364 68.9938 13.8981C69.6439 13.8597 70.2952 13.953 70.9084 14.1725C71.5216 14.392 72.0841 14.733 72.5623 15.1753C73.5426 16.0844 74.1316 17.3387 74.2051 18.6737C74.2786 20.0086 73.8309 21.32 72.9563 22.3313C72.2463 23.1573 1.62529 105.248 10.6233 153.498C12.7633 164.983 19.2713 173.371 30.4973 179.143C41.5803 184.843 52.8213 185.565 64.8513 181.317C107.581 166.274 144.78 92.5263 155.158 70.2813C156.005 68.4844 156.193 66.447 155.688 64.5257C155.184 62.6045 154.02 60.9218 152.4 59.7723L128.25 42.7503C127.373 42.1278 126.378 41.6896 125.327 41.4622C124.275 41.2349 123.189 41.223 122.132 41.4273C121.069 41.6354 120.058 42.0543 119.16 42.6594C118.261 43.2645 117.493 44.0434 116.9 44.9503L65.1093 123.105C64.7556 123.652 64.2952 124.122 63.7558 124.487C63.2163 124.852 62.6088 125.104 61.9696 125.229C61.3304 125.354 60.6725 125.349 60.0354 125.214C59.3982 125.079 58.7949 124.817 58.2613 124.443C57.1742 123.666 56.4312 122.497 56.1887 121.183C55.9462 119.869 56.2232 118.512 56.9613 117.398L108.746 39.2503C110.055 37.2458 111.752 35.5244 113.738 34.1881C115.724 32.8517 117.958 31.9275 120.307 31.4703C122.641 31.0151 125.044 31.0401 127.368 31.5436C129.692 32.0472 131.89 33.0188 133.826 34.3993L157.974 51.4183C161.555 53.964 164.125 57.6882 165.236 61.9386C166.346 66.189 165.926 70.6946 164.048 74.6663C150.2 104.327 113.139 175.039 68.0423 190.908C62.2054 193.017 56.0513 194.113 49.8453 194.15Z" fill="white"/>
</g>
<defs>
<clipPath id="clip0_3201_74">
<rect width="166" height="195" fill="white"/>
</clipPath>
</defs>
</svg>
