<svg width="194" height="202" viewBox="0 0 194 202" fill="none" xmlns="http://www.w3.org/2000/svg">
<g clip-path="url(#clip0_3201_80)">
<path d="M175.76 113.875C175.761 131.256 170.608 148.248 160.952 162.7C151.296 177.153 137.571 188.417 121.513 195.069C105.455 201.721 87.7849 203.462 70.7375 200.072C53.69 196.681 38.0308 188.312 25.7402 176.021C13.4496 163.731 5.07956 148.072 1.68863 131.025C-1.70231 113.977 0.0381479 96.3071 6.68989 80.2489C13.3416 64.1906 24.6059 50.4656 39.0582 40.8093C53.5105 31.1531 70.5017 25.9994 87.883 26C111.189 26 133.541 35.2582 150.021 51.7379C166.501 68.2176 175.76 90.5689 175.76 113.875Z" fill="#979B8A"/>
<path d="M156.555 154.983H71.9915C71.0734 154.983 70.1642 154.802 69.316 154.451C68.4677 154.099 67.697 153.584 67.0478 152.935C66.3985 152.286 65.8836 151.515 65.5322 150.667C65.1808 149.819 65 148.91 65 147.991C65 147.073 65.1808 146.164 65.5322 145.316C65.8836 144.468 66.3985 143.697 67.0478 143.048C67.697 142.399 68.4677 141.884 69.316 141.532C70.1642 141.181 71.0734 141 71.9915 141H156.555C157.473 141 158.382 141.181 159.23 141.532C160.078 141.884 160.849 142.399 161.498 143.048C162.147 143.697 162.662 144.468 163.014 145.316C163.365 146.164 163.546 147.073 163.546 147.991C163.546 148.91 163.365 149.819 163.014 150.667C162.662 151.515 162.147 152.286 161.498 152.935C160.849 153.584 160.078 154.099 159.23 154.451C158.382 154.802 157.473 154.983 156.555 154.983Z" fill="#3B564D"/>
<path d="M156.555 135.983H71.9915C71.0734 135.983 70.1642 135.802 69.316 135.451C68.4677 135.099 67.697 134.584 67.0478 133.935C66.3985 133.286 65.8836 132.515 65.5322 131.667C65.1808 130.819 65 129.91 65 128.991C65 128.073 65.1808 127.164 65.5322 126.316C65.8836 125.468 66.3985 124.697 67.0478 124.048C67.697 123.399 68.4677 122.884 69.316 122.532C70.1642 122.181 71.0734 122 71.9915 122H156.555C157.473 122 158.382 122.181 159.23 122.532C160.078 122.884 160.849 123.399 161.498 124.048C162.147 124.697 162.662 125.468 163.014 126.316C163.365 127.164 163.546 128.073 163.546 128.991C163.546 129.91 163.365 130.819 163.014 131.667C162.662 132.515 162.147 133.286 161.498 133.935C160.849 134.584 160.078 135.099 159.23 135.451C158.382 135.802 157.473 135.983 156.555 135.983Z" fill="#3B564D"/>
<path d="M156.555 116.983H71.9915C71.0734 116.983 70.1642 116.802 69.316 116.451C68.4677 116.099 67.697 115.584 67.0478 114.935C66.3985 114.286 65.8836 113.515 65.5322 112.667C65.1808 111.819 65 110.91 65 109.991C65 109.073 65.1808 108.164 65.5322 107.316C65.8836 106.468 66.3985 105.697 67.0478 105.048C67.697 104.399 68.4677 103.884 69.316 103.532C70.1642 103.181 71.0734 103 71.9915 103H156.555C157.473 103 158.382 103.181 159.23 103.532C160.078 103.884 160.849 104.399 161.498 105.048C162.147 105.697 162.662 106.468 163.014 107.316C163.365 108.164 163.546 109.073 163.546 109.991C163.546 110.91 163.365 111.819 163.014 112.667C162.662 113.515 162.147 114.286 161.498 114.935C160.849 115.584 160.078 116.099 159.23 116.451C158.382 116.802 157.473 116.983 156.555 116.983Z" fill="#3B564D"/>
<path d="M158.514 183.983H71.3504C61.9728 183.974 52.982 180.244 46.3509 173.613C39.7198 166.983 35.9902 157.992 35.9804 148.614V36.5682C35.918 34.1499 36.6093 31.772 37.9584 29.7641C39.3076 27.7561 41.2478 26.2174 43.5104 25.3612C46.0015 24.4724 48.7029 24.3559 51.2613 25.0269C53.8197 25.6979 56.1161 27.1252 57.8504 29.1222C64.5624 36.6592 75.5814 53.2772 73.7634 79.9352C73.7242 80.8595 73.4973 81.7662 73.0966 82.6C72.6959 83.4338 72.1297 84.1774 71.4325 84.7855C70.7353 85.3935 69.9216 85.8534 69.0411 86.137C68.1605 86.4206 67.2314 86.5221 66.3104 86.4352C64.4608 86.307 62.7377 85.4502 61.5191 84.053C60.3005 82.6557 59.686 80.8321 59.8104 78.9822C61.0614 60.6722 55.0284 48.4582 49.9664 41.5822V148.614C49.9722 154.285 52.2274 159.721 56.2369 163.731C60.2465 167.74 65.683 169.995 71.3534 170.001H158.517C164.188 169.995 169.624 167.74 173.634 163.731C177.644 159.721 179.899 154.285 179.904 148.614V49.9022C179.899 44.2318 177.644 38.7953 173.634 34.7858C169.624 30.7762 164.188 28.5211 158.517 28.5152L149.002 28.5153C148.084 28.5153 147.175 28.3345 146.326 27.9831C145.478 27.6318 144.707 27.1168 144.058 26.4676C143.409 25.8183 142.894 25.0476 142.543 24.1993C142.191 23.3511 142.01 22.442 142.01 21.5238C142.01 20.6057 142.191 19.6965 142.543 18.8483C142.894 18 143.409 17.2293 144.058 16.5801C144.707 15.9309 145.478 15.4159 146.326 15.0645C147.175 14.7132 148.084 14.5323 149.002 14.5323L158.514 14.5322C167.892 14.5428 176.882 18.2725 183.513 24.9032C190.144 31.5339 193.874 40.524 193.884 49.9012V148.612C193.874 157.99 190.144 166.98 183.513 173.61C176.882 180.241 167.892 183.971 158.514 183.981" fill="#3B564D"/>
<path d="M114 34C121.732 34 128 27.732 128 20C128 12.268 121.732 6 114 6C106.268 6 100 12.268 100 20C100 27.732 106.268 34 114 34Z" stroke="#3B564D" stroke-width="12"/>
<path d="M81 43H150" stroke="#3B564D" stroke-width="12" stroke-linecap="round"/>
</g>
<defs>
<clipPath id="clip0_3201_80">
<rect width="194" height="202" fill="white"/>
</clipPath>
</defs>
</svg>
