<svg width="194" height="202" viewBox="0 0 194 202" fill="none" xmlns="http://www.w3.org/2000/svg">
<g clip-path="url(#clip0_3201_88)">
<path d="M175.76 113.875C175.761 131.256 170.608 148.248 160.952 162.7C151.296 177.153 137.571 188.417 121.513 195.069C105.455 201.721 87.7849 203.462 70.7375 200.072C53.69 196.681 38.0308 188.312 25.7402 176.021C13.4496 163.731 5.07956 148.072 1.68863 131.025C-1.70231 113.977 0.0381479 96.3071 6.68989 80.2489C13.3416 64.1906 24.6059 50.4656 39.0582 40.8093C53.5105 31.1531 70.5017 25.9994 87.883 26C111.189 26 133.541 35.2582 150.021 51.7379C166.501 68.2176 175.76 90.5689 175.76 113.875Z" fill="#3B564D"/>
<path d="M156.555 154.483H71.9915C71.139 154.483 70.2949 154.315 69.5073 153.989C68.7197 153.663 68.0041 153.184 67.4013 152.582C66.7985 151.979 66.3204 151.263 65.9941 150.476C65.6679 149.688 65.5 148.844 65.5 147.991C65.5 147.139 65.6679 146.295 65.9941 145.507C66.3204 144.72 66.7985 144.004 67.4013 143.401C68.0041 142.799 68.7197 142.32 69.5073 141.994C70.2949 141.668 71.139 141.5 71.9915 141.5H156.555C157.407 141.5 158.251 141.668 159.039 141.994C159.826 142.32 160.542 142.799 161.145 143.401C161.747 144.004 162.226 144.72 162.552 145.507C162.878 146.295 163.046 147.139 163.046 147.991C163.046 148.844 162.878 149.688 162.552 150.476C162.226 151.263 161.747 151.979 161.145 152.582C160.542 153.184 159.826 153.663 159.039 153.989C158.251 154.315 157.407 154.483 156.555 154.483Z" fill="white" stroke="white"/>
<path d="M156.555 135.483H71.9915C71.139 135.483 70.2949 135.315 69.5073 134.989C68.7197 134.663 68.0041 134.184 67.4013 133.582C66.7985 132.979 66.3204 132.263 65.9941 131.476C65.6679 130.688 65.5 129.844 65.5 128.991C65.5 128.139 65.6679 127.295 65.9941 126.507C66.3204 125.72 66.7985 125.004 67.4013 124.401C68.0041 123.799 68.7197 123.32 69.5073 122.994C70.2949 122.668 71.139 122.5 71.9915 122.5H156.555C157.407 122.5 158.251 122.668 159.039 122.994C159.826 123.32 160.542 123.799 161.145 124.401C161.747 125.004 162.226 125.72 162.552 126.507C162.878 127.295 163.046 128.139 163.046 128.991C163.046 129.844 162.878 130.688 162.552 131.476C162.226 132.263 161.747 132.979 161.145 133.582C160.542 134.184 159.826 134.663 159.039 134.989C158.251 135.315 157.407 135.483 156.555 135.483Z" fill="white" stroke="white"/>
<path d="M156.555 116.483H71.9915C71.139 116.483 70.2949 116.315 69.5073 115.989C68.7197 115.663 68.0041 115.184 67.4013 114.582C66.7985 113.979 66.3204 113.263 65.9941 112.476C65.6679 111.688 65.5 110.844 65.5 109.991C65.5 109.139 65.6679 108.295 65.9941 107.507C66.3204 106.72 66.7985 106.004 67.4013 105.401C68.0041 104.799 68.7197 104.32 69.5073 103.994C70.2949 103.668 71.139 103.5 71.9915 103.5H156.555C157.407 103.5 158.251 103.668 159.039 103.994C159.826 104.32 160.542 104.799 161.145 105.401C161.747 106.004 162.226 106.72 162.552 107.507C162.878 108.295 163.046 109.139 163.046 109.991C163.046 110.844 162.878 111.688 162.552 112.476C162.226 113.263 161.747 113.979 161.145 114.582C160.542 115.184 159.826 115.663 159.039 115.989C158.251 116.315 157.407 116.483 156.555 116.483Z" fill="white" stroke="white"/>
<path d="M158.514 183.983H71.3504C61.9728 183.974 52.982 180.244 46.3509 173.613C39.7198 166.983 35.9902 157.992 35.9804 148.614V36.5682C35.918 34.1499 36.6093 31.772 37.9584 29.7641C39.3076 27.7561 41.2478 26.2174 43.5104 25.3612C46.0015 24.4724 48.7029 24.3559 51.2613 25.0269C53.8197 25.6979 56.1161 27.1252 57.8504 29.1222C64.5624 36.6592 75.5814 53.2772 73.7634 79.9352C73.7242 80.8595 73.4973 81.7662 73.0966 82.6C72.6959 83.4338 72.1297 84.1774 71.4325 84.7855C70.7353 85.3935 69.9216 85.8534 69.0411 86.137C68.1605 86.4206 67.2314 86.5221 66.3104 86.4352C64.4608 86.307 62.7377 85.4502 61.5191 84.053C60.3005 82.6557 59.686 80.8321 59.8104 78.9822C61.0614 60.6722 55.0284 48.4582 49.9664 41.5822V148.614C49.9722 154.285 52.2274 159.721 56.2369 163.731C60.2465 167.74 65.683 169.995 71.3534 170.001H158.517C164.188 169.995 169.624 167.74 173.634 163.731C177.644 159.721 179.899 154.285 179.904 148.614V49.9022C179.899 44.2318 177.644 38.7953 173.634 34.7858C169.624 30.7762 164.188 28.5211 158.517 28.5152L149.002 28.5153C148.084 28.5153 147.175 28.3345 146.326 27.9831C145.478 27.6318 144.707 27.1168 144.058 26.4676C143.409 25.8183 142.894 25.0476 142.543 24.1993C142.191 23.3511 142.01 22.442 142.01 21.5238C142.01 20.6057 142.191 19.6965 142.543 18.8483C142.894 18 143.409 17.2293 144.058 16.5801C144.707 15.9309 145.478 15.4159 146.326 15.0645C147.175 14.7132 148.084 14.5323 149.002 14.5323L158.514 14.5322C167.892 14.5428 176.882 18.2725 183.513 24.9032C190.144 31.5339 193.874 40.524 193.884 49.9012V148.612C193.874 157.99 190.144 166.98 183.513 173.61C176.882 180.241 167.892 183.971 158.514 183.981" fill="white"/>
<mask id="mask0_3201_88" style="mask-type:luminance" maskUnits="userSpaceOnUse" x="35" y="14" width="159" height="170">
<path d="M158.514 183.983H71.3504C61.9728 183.974 52.982 180.244 46.3509 173.613C39.7198 166.983 35.9902 157.992 35.9804 148.614V36.5682C35.918 34.1499 36.6093 31.772 37.9584 29.7641C39.3076 27.7561 41.2478 26.2174 43.5104 25.3612C46.0015 24.4724 48.7029 24.3559 51.2613 25.0269C53.8197 25.6979 56.1161 27.1252 57.8504 29.1222C64.5624 36.6592 75.5814 53.2772 73.7634 79.9352C73.7242 80.8595 73.4973 81.7662 73.0966 82.6C72.6959 83.4338 72.1297 84.1774 71.4325 84.7855C70.7353 85.3935 69.9216 85.8534 69.0411 86.137C68.1605 86.4206 67.2314 86.5221 66.3104 86.4352C64.4608 86.307 62.7377 85.4502 61.5191 84.053C60.3005 82.6557 59.686 80.8321 59.8104 78.9822C61.0614 60.6722 55.0284 48.4582 49.9664 41.5822V148.614C49.9722 154.285 52.2274 159.721 56.2369 163.731C60.2465 167.74 65.683 169.995 71.3534 170.001H158.517C164.188 169.995 169.624 167.74 173.634 163.731C177.644 159.721 179.899 154.285 179.904 148.614V49.9022C179.899 44.2318 177.644 38.7953 173.634 34.7858C169.624 30.7762 164.188 28.5211 158.517 28.5152L149.002 28.5153C148.084 28.5153 147.175 28.3345 146.326 27.9831C145.478 27.6318 144.707 27.1168 144.058 26.4676C143.409 25.8183 142.894 25.0476 142.543 24.1993C142.191 23.3511 142.01 22.442 142.01 21.5238C142.01 20.6057 142.191 19.6965 142.543 18.8483C142.894 18 143.409 17.2293 144.058 16.5801C144.707 15.9309 145.478 15.4159 146.326 15.0645C147.175 14.7132 148.084 14.5323 149.002 14.5323L158.514 14.5322C167.892 14.5428 176.882 18.2725 183.513 24.9032C190.144 31.5339 193.874 40.524 193.884 49.9012V148.612C193.874 157.99 190.144 166.98 183.513 173.61C176.882 180.241 167.892 183.971 158.514 183.981" fill="white"/>
</mask>
<g mask="url(#mask0_3201_88)">
<path d="M35.9805 148.614H34.9805V148.615L35.9805 148.614ZM35.9805 36.5682H36.9805V36.5553L36.9802 36.5424L35.9805 36.5682ZM43.5105 25.3612L43.1744 24.4194L43.1655 24.4226L43.1566 24.426L43.5105 25.3612ZM57.8505 29.1222L57.0954 29.778L57.1037 29.7873L57.8505 29.1222ZM73.7635 79.9352L72.7658 79.8672L72.7649 79.88L72.7644 79.8929L73.7635 79.9352ZM66.3105 86.4352L66.4044 85.4397L66.392 85.4385L66.3797 85.4376L66.3105 86.4352ZM59.8105 78.9822L58.8128 78.9141L58.8127 78.9151L59.8105 78.9822ZM49.9665 41.5822L50.7718 40.9894L48.9665 38.5371V41.5822H49.9665ZM49.9665 148.614H48.9665V148.615L49.9665 148.614ZM158.517 170.001V171.001H158.519L158.517 170.001ZM179.904 148.614L180.904 148.615V148.614H179.904ZM158.517 28.5152L158.519 27.5152H158.517V28.5152ZM158.514 14.5322L158.516 13.5322H158.514V14.5322ZM193.884 49.9012H194.884V49.9001L193.884 49.9012ZM193.884 148.612L194.884 148.613V148.612H193.884ZM158.514 182.983H71.3505L71.3495 184.983H158.514V182.983ZM71.3505 182.983C62.2378 182.974 53.5019 179.35 47.0581 172.906L45.6439 174.321C52.4623 181.139 61.707 184.973 71.3495 184.983L71.3505 182.983ZM47.0581 172.906C40.6143 166.463 36.99 157.726 36.9805 148.613L34.9805 148.615C34.9906 158.258 38.8256 167.502 45.6439 174.321L47.0581 172.906ZM36.9805 148.613V36.5682H34.9805V148.614L36.9805 148.613ZM36.9802 36.5424C36.9231 34.3315 37.5551 32.1575 38.7886 30.3218L37.1285 29.2064C35.6636 31.3865 34.9131 33.9683 34.9808 36.594L36.9802 36.5424ZM38.7886 30.3218C40.022 28.486 41.7959 27.0793 43.8644 26.2965L43.1566 24.426C40.7 25.3556 38.5933 27.0262 37.1285 29.2064L38.7886 30.3218ZM43.8465 26.3031C46.1481 25.4819 48.6439 25.3742 51.0077 25.9942L51.5151 24.0596C48.762 23.3376 45.8551 23.4629 43.1744 24.4194L43.8465 26.3031ZM51.0077 25.9942C53.3714 26.6141 55.4931 27.9329 57.0954 29.778L58.6055 28.4665C56.7393 26.3176 54.2681 24.7817 51.5151 24.0596L51.0077 25.9942ZM57.1037 29.7873C63.6882 37.1811 74.5609 53.5455 72.7658 79.8672L74.7612 80.0033C76.6021 53.009 65.4368 36.1374 58.5973 28.4572L57.1037 29.7873ZM72.7644 79.8929C72.7309 80.6816 72.5374 81.4553 72.1954 82.1669L73.998 83.0332C74.4575 82.0771 74.7177 81.0374 74.7626 79.9776L72.7644 79.8929ZM72.1954 82.1669C71.8534 82.8784 71.3703 83.513 70.7753 84.0318L72.0899 85.5391C72.8893 84.8419 73.5386 83.9893 73.998 83.0332L72.1954 82.1669ZM70.7753 84.0318C70.1804 84.5507 69.486 84.9431 68.7346 85.1852L69.3477 87.0888C70.3575 86.7636 71.2904 86.2364 72.0899 85.5391L70.7753 84.0318ZM68.7346 85.1852C67.9832 85.4272 67.1903 85.5138 66.4044 85.4397L66.2166 87.4308C67.2727 87.5304 68.338 87.4141 69.3477 87.0888L68.7346 85.1852ZM66.3797 85.4376C64.7943 85.3277 63.3173 84.5933 62.2728 83.3957L60.7655 84.7103C62.1582 86.3071 64.1275 87.2863 66.2413 87.4329L66.3797 85.4376ZM62.2728 83.3957C61.2283 82.198 60.7016 80.6349 60.8082 79.0494L58.8127 78.9151C58.6705 81.0292 59.3728 83.1134 60.7655 84.7103L62.2728 83.3957ZM60.8082 79.0504C62.0778 60.468 55.951 48.0246 50.7718 40.9894L49.1612 42.1751C54.106 48.8919 60.0452 60.8765 58.8128 78.9141L60.8082 79.0504ZM48.9665 41.5822V148.614H50.9665V41.5822H48.9665ZM48.9665 148.615C48.9726 154.551 51.3331 160.241 55.5299 164.438L56.9441 163.024C53.1218 159.201 50.972 154.02 50.9665 148.614L48.9665 148.615ZM55.5299 164.438C59.7268 168.635 65.4172 170.995 71.3525 171.001L71.3545 169.001C65.949 168.996 60.7664 166.846 56.9441 163.024L55.5299 164.438ZM71.3525 171.001H158.517V169.001H71.3545L71.3525 171.001ZM158.519 171.001C164.454 170.995 170.144 168.635 174.341 164.438L172.927 163.024C169.105 166.846 163.923 168.996 158.517 169.001L158.519 171.001ZM174.341 164.438C178.538 160.241 180.898 154.551 180.904 148.615L178.904 148.613C178.899 154.019 176.749 159.201 172.927 163.024L174.341 164.438ZM180.904 148.614V49.9022H178.904V148.613L180.904 148.614ZM180.904 49.9022C180.898 43.967 178.538 38.2755 174.341 34.0787L172.927 35.4929C176.749 39.3152 178.899 44.4977 178.904 49.9033L180.904 49.9022ZM174.341 34.0787C170.144 29.8818 164.454 27.5213 158.519 27.5152L158.516 29.5152C163.922 29.5208 169.105 31.6706 172.927 35.4929L174.341 34.0787ZM158.517 27.5152L149.002 27.5153V29.5153L158.516 29.5152L158.517 27.5152ZM149.002 27.5153C148.215 27.5153 147.436 27.3603 146.709 27.0592L145.944 28.907C146.913 29.3086 147.953 29.5153 149.002 29.5153V27.5153ZM146.709 27.0592C145.982 26.7581 145.322 26.3168 144.765 25.7604L143.351 27.1747C144.093 27.9167 144.974 28.5054 145.944 28.907L146.709 27.0592ZM144.765 25.7604C144.209 25.2041 143.768 24.5436 143.467 23.8167L141.619 24.582C142.02 25.5516 142.609 26.4326 143.351 27.1747L144.765 25.7604ZM143.467 23.8167C143.165 23.0897 143.01 22.3106 143.01 21.5238H141.01C141.01 22.5733 141.217 23.6125 141.619 24.582L143.467 23.8167ZM143.01 21.5238C143.01 20.737 143.165 19.9579 143.467 19.231L141.619 18.4656C141.217 19.4352 141.01 20.4744 141.01 21.5238H143.01ZM143.467 19.231C143.768 18.504 144.209 17.8435 144.765 17.2872L143.351 15.873C142.609 16.6151 142.02 17.496 141.619 18.4656L143.467 19.231ZM144.765 17.2872C145.322 16.7308 145.982 16.2895 146.709 15.9884L145.944 14.1406C144.974 14.5422 144.093 15.1309 143.351 15.873L144.765 17.2872ZM146.709 15.9884C147.436 15.6873 148.215 15.5323 149.002 15.5323V13.5323C147.953 13.5323 146.913 13.739 145.944 14.1406L146.709 15.9884ZM149.002 15.5323L158.514 15.5322V13.5322L149.002 13.5323V15.5323ZM158.514 15.5322C167.627 15.5425 176.362 19.1669 182.806 25.6103L184.22 24.1961C177.402 17.3782 168.158 13.5431 158.516 13.5322L158.514 15.5322ZM182.806 25.6103C189.249 32.0537 192.874 40.7899 192.884 49.9024L194.884 49.9001C194.873 40.258 191.038 31.014 184.22 24.1961L182.806 25.6103ZM192.884 49.9012V148.612H194.884V49.9012H192.884ZM192.884 148.611C192.874 157.724 189.249 166.46 182.806 172.903L184.22 174.317C191.038 167.499 194.873 158.256 194.884 148.613L192.884 148.611ZM182.806 172.903C176.362 179.347 167.626 182.971 158.513 182.981L158.516 184.981C168.158 184.97 177.402 181.135 184.22 174.317L182.806 172.903Z" fill="white"/>
</g>
<path d="M114 34C121.732 34 128 27.732 128 20C128 12.268 121.732 6 114 6C106.268 6 100 12.268 100 20C100 27.732 106.268 34 114 34Z" stroke="white" stroke-width="12"/>
<path d="M81 43H150" stroke="white" stroke-width="12" stroke-linecap="round"/>
</g>
<defs>
<clipPath id="clip0_3201_88">
<rect width="194" height="202" fill="white"/>
</clipPath>
</defs>
</svg>
