<svg width="241" height="228" viewBox="0 0 241 228" fill="none" xmlns="http://www.w3.org/2000/svg">
<path d="M192.09 128.851C192.327 146.857 187.219 164.53 177.412 179.633C167.605 194.737 153.54 206.593 136.994 213.702C120.449 220.812 102.167 222.855 84.4606 219.574C66.754 216.293 50.4179 207.835 37.5182 195.27C24.6186 182.704 15.7347 166.596 11.9902 148.982C8.24562 131.367 9.80852 113.038 16.4812 96.3117C23.1539 79.5855 34.6368 65.2137 49.4776 55.0137C64.3184 44.8137 81.8506 39.2436 99.8571 39.0078C124.002 38.6912 147.283 47.9788 164.58 64.8276C181.877 81.6764 191.773 104.706 192.09 128.851Z" fill="#979B8A"/>
<circle cx="123" cy="80" r="65" stroke="#3B564D" stroke-width="20"/>
<line x1="170.247" y1="129.109" x2="228.247" y2="190.109" stroke="#3B564D" stroke-width="20"/>
</svg>
