<svg width="192" height="206" viewBox="0 0 192 206" fill="none" xmlns="http://www.w3.org/2000/svg">
<g clip-path="url(#clip0_3208_74)">
<path d="M191.522 94.5002C191.772 113.44 186.4 132.028 176.086 147.914C165.771 163.8 150.978 176.271 133.575 183.75C116.173 191.228 96.9442 193.378 78.3201 189.928C59.696 186.477 42.5134 177.582 28.9451 164.366C15.3769 151.149 6.03244 134.207 2.09359 115.68C-1.84527 97.1528 -0.20165 77.8739 6.81659 60.2811C13.8348 42.6883 25.9125 27.5718 41.5221 16.8433C57.1318 6.11478 75.5723 0.256124 94.5117 0.00822742C107.086 -0.156611 119.57 2.15695 131.251 6.81681C142.932 11.4767 153.58 18.3916 162.588 27.1667C171.597 35.9419 178.788 46.4054 183.753 57.9599C188.717 69.5143 191.357 81.9335 191.522 94.5082" fill="#3B564D"/>
<path d="M156.319 205.648H36.3003C32.232 205.649 28.2353 204.578 24.7119 202.545C21.1885 200.511 18.2624 197.586 16.2278 194.063C14.1932 190.54 13.1218 186.543 13.1211 182.475C13.1205 178.407 14.1907 174.41 16.2243 170.886L76.2373 66.9394C78.2715 63.4162 81.1973 60.4906 84.7206 58.4565C88.2439 56.4224 92.2405 55.3516 96.3088 55.3516C100.377 55.3516 104.374 56.4224 107.897 58.4565C111.42 60.4906 114.346 63.4162 116.38 66.9394L176.394 170.886C178.428 174.41 179.499 178.407 179.499 182.476C179.499 186.544 178.427 190.541 176.393 194.065C174.358 197.588 171.432 200.514 167.908 202.548C164.384 204.582 160.387 205.652 156.318 205.651M96.3053 70.5864C94.9095 70.5726 93.5355 70.9335 92.3268 71.6317C91.118 72.3298 90.1188 73.3395 89.4333 74.5554L29.4203 178.502C28.7234 179.71 28.3567 181.079 28.3569 182.473C28.3572 183.867 28.7244 185.236 29.4218 186.443C30.1191 187.65 31.1219 188.652 32.3294 189.348C33.5368 190.045 34.9064 190.411 36.3003 190.41H156.319C157.713 190.412 159.083 190.046 160.291 189.349C161.498 188.653 162.501 187.651 163.198 186.443C163.894 185.236 164.261 183.866 164.26 182.472C164.258 181.078 163.89 179.709 163.191 178.502L103.185 74.5584C102.499 73.3413 101.498 72.3308 100.288 71.6326C99.078 70.9344 97.7024 70.5741 96.3053 70.5894" fill="white"/>
<path d="M94.3417 156.545C93.341 156.546 92.3502 156.349 91.4257 155.966C90.5012 155.583 89.6612 155.022 88.9536 154.314C88.2461 153.607 87.6849 152.767 87.3021 151.842C86.9193 150.918 86.7224 149.927 86.7227 148.926V100.726C86.7227 98.7057 87.5254 96.7678 88.9542 95.339C90.3831 93.9101 92.321 93.1074 94.3417 93.1074C96.3623 93.1074 98.3003 93.9101 99.7291 95.339C101.158 96.7678 101.961 98.7057 101.961 100.726V148.926C101.961 149.927 101.764 150.918 101.381 151.842C100.998 152.767 100.437 153.607 99.7297 154.314C99.0221 155.022 98.1821 155.583 97.2576 155.966C96.3331 156.349 95.3423 156.546 94.3417 156.545Z" fill="white"/>
<path d="M95.4627 180.828C93.4389 180.834 91.4947 180.04 90.0537 178.619C88.6473 177.168 87.8557 175.23 87.8438 173.209C87.8545 172.212 88.0617 171.226 88.4538 170.309C88.8221 169.377 89.365 168.524 90.0537 167.795C91.1601 166.769 92.5327 166.076 94.0146 165.793C95.4966 165.51 97.0282 165.649 98.4347 166.195C99.3439 166.565 100.172 167.108 100.873 167.795C101.56 168.54 102.125 169.388 102.549 170.309C103.027 171.469 103.211 172.73 103.084 173.978C102.958 175.226 102.525 176.424 101.824 177.465C101.122 178.505 100.175 179.356 99.0652 179.942C97.9556 180.528 96.7185 180.831 95.4637 180.823" fill="white"/>
</g>
<defs>
<clipPath id="clip0_3208_74">
<rect width="192" height="206" fill="white"/>
</clipPath>
</defs>
</svg>
