<svg width="149" height="184" viewBox="0 0 149 184" fill="none" xmlns="http://www.w3.org/2000/svg">
<g clip-path="url(#clip0_3201_132)">
<path d="M148.789 64.334C148.79 77.0587 145.017 89.4977 137.947 100.078C130.878 110.658 120.83 118.905 109.074 123.774C97.3182 128.644 84.3822 129.918 71.902 127.436C59.4218 124.953 47.9581 118.826 38.9604 109.828C29.9628 100.83 23.8354 89.3664 21.3532 76.8862C18.871 64.406 20.1453 51.47 25.0152 39.7141C29.885 27.9581 38.1316 17.9103 48.712 10.8413C59.2925 3.77219 71.7315 -0.000593278 84.4562 6.99764e-08C101.518 0.000530485 117.882 6.77876 129.946 18.8436C142.011 30.9085 148.789 47.2718 148.789 64.334Z" fill="#979B8A"/>
<path d="M89.7026 183.271H25.8896C19.0254 183.262 12.4448 180.531 7.59165 175.677C2.73853 170.822 0.00925534 164.241 0.00263967 157.377V75.3458C-0.0413777 73.5756 0.466045 71.8355 1.45466 70.3663C2.44327 68.8972 3.86417 67.7718 5.52064 67.1458C7.34379 66.4968 9.32026 66.4124 11.1921 66.9037C13.0639 67.395 14.7442 68.4391 16.0136 69.8998C20.9276 75.4228 28.9886 87.5998 27.6636 107.1C27.6375 107.778 27.4729 108.443 27.1801 109.055C26.8873 109.667 26.4724 110.213 25.9609 110.659C25.4494 111.105 24.8522 111.441 24.2059 111.648C23.5596 111.854 22.8779 111.926 22.2026 111.86C20.8492 111.765 19.5886 111.138 18.6972 110.115C17.8058 109.092 17.3564 107.757 17.4476 106.404C18.3636 93.0138 13.9476 84.0618 10.2406 79.0198V157.378C10.2446 161.528 11.8948 165.508 14.8291 168.443C17.7634 171.378 21.7422 173.03 25.8926 173.035H89.7026C93.8538 173.031 97.8338 171.38 100.769 168.444C103.704 165.509 105.355 161.529 105.36 157.378V85.1088C105.355 80.9577 103.704 76.9777 100.769 74.0424C97.8338 71.107 93.8538 69.4561 89.7026 69.4518H31.2636C30.5915 69.4518 29.9259 69.3195 29.3049 69.0622C28.6839 68.805 28.1196 68.428 27.6443 67.9527C27.169 67.4774 26.792 66.9131 26.5348 66.2921C26.2775 65.6711 26.1451 65.0055 26.1451 64.3333C26.1451 63.6612 26.2775 62.9956 26.5348 62.3746C26.792 61.7536 27.169 61.1893 27.6443 60.714C28.1196 60.2387 28.6839 59.8617 29.3049 59.6045C29.9259 59.3472 30.5915 59.2148 31.2636 59.2148H89.7026C96.5677 59.2228 103.149 61.9534 108.004 66.8078C112.858 71.6621 115.589 78.2438 115.597 85.1088V157.376C115.589 164.241 112.858 170.823 108.004 175.678C103.15 180.532 96.5679 183.263 89.7026 183.271Z" fill="white"/>
<path d="M92.3265 52.387H32.2055C27.5377 52.387 23.061 50.5327 19.7604 47.2321C16.4597 43.9314 14.6055 39.4548 14.6055 34.787C14.6055 30.1192 16.4597 25.6426 19.7604 22.3419C23.061 19.0413 27.5377 17.187 32.2055 17.187H92.3265C96.9943 17.187 101.471 19.0413 104.772 22.3419C108.072 25.6426 109.926 30.1192 109.926 34.787C109.926 39.4548 108.072 43.9314 104.772 47.2321C101.471 50.5327 96.9943 52.387 92.3265 52.387ZM32.2055 27.419C30.252 27.419 28.3786 28.195 26.9973 29.5763C25.616 30.9576 24.84 32.8311 24.84 34.7845C24.84 36.738 25.616 38.6114 26.9973 39.9927C28.3786 41.374 30.252 42.15 32.2055 42.15H92.3265C94.2799 42.15 96.1534 41.374 97.5347 39.9927C98.916 38.6114 99.692 36.738 99.692 34.7845C99.692 32.8311 98.916 30.9576 97.5347 29.5763C96.1534 28.195 94.2799 27.419 92.3265 27.419H32.2055Z" fill="white"/>
<path d="M84.4509 160.038C83.0939 160.038 81.7928 159.498 80.8336 158.538C79.8743 157.579 79.3356 156.277 79.3359 154.92V87.5711C79.3359 86.2136 79.8752 84.9117 80.8351 83.9518C81.795 82.9919 83.0969 82.4526 84.4544 82.4526C85.8119 82.4526 87.1138 82.9919 88.0737 83.9518C89.0336 84.9117 89.5729 86.2136 89.5729 87.5711V154.92C89.573 155.592 89.4407 156.258 89.1836 156.879C88.9264 157.5 88.5494 158.064 88.0742 158.539C87.5989 159.015 87.0346 159.392 86.4136 159.649C85.7926 159.906 85.127 160.038 84.4549 160.038" fill="white"/>
<path d="M62.2664 160.038C61.5943 160.038 60.9287 159.906 60.3077 159.649C59.6867 159.392 59.1224 159.015 58.6472 158.539C58.1719 158.064 57.7949 157.5 57.5378 156.879C57.2806 156.258 57.1483 155.592 57.1484 154.92V87.5711C57.1484 86.2136 57.6877 84.9117 58.6476 83.9518C59.6075 82.9919 60.9094 82.4526 62.2669 82.4526C63.6244 82.4526 64.9264 82.9919 65.8863 83.9518C66.8462 84.9117 67.3854 86.2136 67.3854 87.5711V154.92C67.3856 155.592 67.2533 156.258 66.9961 156.879C66.739 157.5 66.362 158.064 65.8867 158.539C65.4114 159.015 64.8472 159.392 64.2262 159.649C63.6052 159.906 62.9386 160.038 62.2664 160.038Z" fill="white"/>
<path d="M40.0868 160.038C39.4146 160.038 38.749 159.906 38.128 159.649C37.507 159.392 36.9427 159.015 36.4674 158.539C35.9922 158.064 35.6152 157.5 35.358 156.879C35.1009 156.258 34.9687 155.592 34.9688 154.92V87.5711C34.9688 86.2136 35.508 84.9117 36.4679 83.9518C37.4278 82.9919 38.7297 82.4526 40.0872 82.4526C41.4447 82.4526 42.7467 82.9919 43.7066 83.9518C44.6665 84.9117 45.2057 86.2136 45.2057 87.5711V154.92C45.2058 155.592 45.0735 156.258 44.8164 156.879C44.5592 157.5 44.1823 158.064 43.7071 158.539C43.2318 159.015 42.6674 159.392 42.0464 159.649C41.4254 159.906 40.7589 160.038 40.0868 160.038Z" fill="white"/>
</g>
<defs>
<clipPath id="clip0_3201_132">
<rect width="149" height="184" fill="white"/>
</clipPath>
</defs>
</svg>
